<svg xmlns="http://www.w3.org/2000/svg" width="793.3690321180555" height="176.37382075471697" viewBox="8.46462673611111 24.662441037735853 793.3690321180555 176.37382075471697" version="1.1"><path d="M 1 117 L 1 233 403.500 233 L 806 233 806 117 L 806 1 403.500 1 L 1 1 1 117 M 138 28.955 C 136.625 29.393, 131.900 30.534, 127.500 31.490 C 118.542 33.437, 105.194 38.319, 94.271 43.644 C 86.666 47.352, 84.835 50, 89.878 50 C 91.460 50, 93.291 50.646, 93.947 51.436 C 95.733 53.589, 93.844 56.274, 88.577 59.069 C 84.379 61.295, 83.924 61.352, 82.407 59.836 C 80.891 58.319, 80.905 57.970, 82.600 55.099 C 83.607 53.395, 84.784 52, 85.216 52 C 85.647 52, 86 51.325, 86 50.500 C 86 49.675, 85.325 49, 84.500 49 C 83.675 49, 83 49.401, 83 49.892 C 83 50.382, 81.934 51.051, 80.630 51.378 C 78.117 52.009, 63.907 61.313, 55.433 67.875 C 49.954 72.118, 31 91.769, 31 93.206 C 31 93.689, 30.111 95.038, 29.025 96.204 C 26.184 99.253, 18.524 115.325, 16.083 123.355 C 13.833 130.762, 13.549 136.118, 14.911 145.500 C 15.886 152.208, 19.953 161.578, 23.598 165.511 C 24.919 166.937, 26 168.715, 26 169.462 C 26 170.210, 28.319 172.774, 31.153 175.161 C 33.987 177.547, 37.596 180.731, 39.173 182.236 C 42.080 185.010, 42.602 185.208, 51.500 186.909 C 54.250 187.435, 58.300 188.368, 60.500 188.982 C 63.002 189.680, 81.162 190.323, 109 190.698 C 153.814 191.301, 174.511 190.448, 185.969 187.525 C 191.049 186.229, 192.690 183.390, 188.816 182.597 C 174.280 179.621, 167.168 178.897, 146.879 178.325 C 132.722 177.926, 124.065 177.306, 124.265 176.705 C 124.444 176.169, 127.270 174.249, 130.545 172.439 C 133.820 170.628, 137.564 168.203, 138.864 167.048 C 140.164 165.893, 142.189 164.454, 143.364 163.849 C 144.539 163.244, 146.719 161.568, 148.208 160.125 C 149.698 158.681, 152.173 156.507, 153.708 155.292 C 161.453 149.168, 163 147.727, 163 146.641 C 163 145.992, 165.925 142.795, 169.500 139.538 C 173.075 136.281, 176 133.097, 176 132.463 C 176 131.829, 176.900 130.495, 178 129.500 C 179.100 128.505, 180 127.262, 180 126.739 C 180 126.217, 181.125 124.452, 182.500 122.817 C 183.875 121.183, 185.286 118.643, 185.635 117.173 C 185.983 115.703, 186.817 113.825, 187.488 113 C 189.239 110.846, 192 104.930, 192 103.333 C 192 102.585, 192.406 101.191, 192.903 100.236 C 195.556 95.132, 196.500 88.636, 196.498 75.500 C 196.495 56.911, 194.657 51.691, 184.500 41.425 C 173.779 30.588, 167.238 27.984, 151 28.090 C 145.225 28.127, 139.375 28.517, 138 28.955 M 132 55.471 C 115.260 59.689, 93.405 70.592, 83.434 79.700 C 69.939 92.027, 60.905 101.480, 58.232 106.072 C 56.495 109.058, 54.398 112.625, 53.573 114 C 52.159 116.356, 48.897 123.696, 47.794 127 C 46.872 129.765, 48.844 142.832, 50.584 145.489 C 53.810 150.411, 58.403 151.864, 68 150.995 C 72.675 150.573, 76.783 150.393, 77.129 150.597 C 77.474 150.801, 79.187 150.254, 80.936 149.382 C 82.684 148.510, 84.988 148.025, 86.056 148.304 C 87.124 148.584, 88.250 148.404, 88.558 147.906 C 88.866 147.408, 90.130 147, 91.368 147 C 92.605 147, 94.491 146.339, 95.559 145.532 C 96.626 144.724, 98.232 144.049, 99.128 144.032 C 100.023 144.014, 101.315 143.325, 102 142.500 C 102.685 141.675, 104.090 141, 105.122 141 C 106.155 141, 107 140.550, 107 140 C 107 139.450, 108.070 139, 109.378 139 C 110.685 139, 112.366 138.264, 113.113 137.364 C 114.292 135.944, 118.451 132.911, 123.896 129.500 C 130.186 125.560, 147.850 109.864, 150.500 105.860 C 151.050 105.029, 153.608 101.200, 156.184 97.351 C 163.278 86.754, 165.895 81.300, 167.146 74.509 C 168.777 65.657, 167.817 61.992, 162.816 57.972 C 158.766 54.718, 158.403 54.629, 148.082 54.360 C 141.468 54.188, 135.437 54.604, 132 55.471 M 177 63.930 C 177 66.184, 176.588 68.809, 176.085 69.764 C 175.581 70.719, 174.202 74.754, 173.021 78.730 C 171.839 82.707, 170.451 86.221, 169.936 86.539 C 169.421 86.858, 169 87.752, 169 88.528 C 169 93.161, 150.238 115.129, 135.283 128.007 C 130.090 132.479, 129.060 134.301, 131.038 135.523 C 133.656 137.141, 162.688 108.865, 170.882 96.717 C 182.508 79.481, 185.071 71.331, 181.160 64.038 C 178.498 59.075, 177 59.036, 177 63.930 M 580 104 L 580 126 584.500 126 L 589 126 589 116.950 C 589 106.847, 590.303 103.094, 594.472 101.195 C 600.080 98.639, 609.856 100.577, 611.379 104.545 C 611.720 105.435, 612 110.627, 612 116.082 L 612 126 616.500 126 L 621 126 621 113.516 C 621 101.128, 620.977 101.006, 618.076 97.766 L 615.152 94.500 602.826 94.554 C 595.260 94.587, 590.216 94.201, 589.765 93.554 C 589.361 92.974, 589.024 90.138, 589.015 87.250 L 589 82 584.500 82 L 580 82 580 104 M 244.352 84.092 C 242.620 84.594, 239.807 86.594, 238.102 88.537 L 235 92.070 235 104.574 L 235 117.077 238.926 121.289 L 242.852 125.500 259.552 125.819 C 277.888 126.169, 280.427 125.658, 284.520 120.794 C 286.878 117.991, 287 117.216, 287 105 C 287 92.498, 286.927 92.067, 284.297 88.941 C 279.981 83.812, 276.744 82.989, 261.282 83.090 C 253.702 83.140, 246.083 83.591, 244.352 84.092 M 454 87.566 C 454 91.157, 452.301 93.935, 449.439 95.023 C 446.424 96.169, 446.043 100, 448.943 100 C 452.508 100, 454 103.767, 454 112.768 C 454 120.271, 454.242 121.333, 456.455 123.545 C 458.735 125.826, 459.622 126, 468.955 126 L 479 126 479 123 L 479 120 472.500 120 C 463.689 120, 462 118.343, 462 109.700 C 462 106.133, 462.521 102.879, 463.200 102.200 C 463.879 101.521, 467.133 101, 470.700 101 L 477 101 477 97.500 L 477 94 470.700 94 C 463.521 94, 462 93.003, 462 88.300 C 462 85.117, 461.859 85, 458 85 C 454.373 85, 454 85.239, 454 87.566 M 249.480 90.870 C 244.458 93.151, 243 96.241, 243 104.597 C 243 116.862, 246.667 120, 261 120 C 275.675 120, 279.022 117.211, 278.965 105.027 C 278.925 96.685, 277.803 93.827, 273.433 90.946 C 269.382 88.276, 255.289 88.231, 249.480 90.870 M 397 93.890 C 397 94.520, 400.150 98.007, 404 101.639 C 407.850 105.271, 411 108.989, 411 109.902 C 411 110.816, 408.300 114.234, 405 117.500 C 401.700 120.766, 399 124.014, 399 124.719 C 399 125.576, 400.535 126, 403.642 126 C 407.697 126, 408.951 125.431, 413.552 121.500 C 416.449 119.025, 419.295 117, 419.876 117 C 420.458 117, 423.213 119.025, 426 121.500 C 430.397 125.405, 431.657 126, 435.533 126 C 438.503 126, 440 125.570, 440 124.716 C 440 124.010, 437.492 120.972, 434.426 117.966 C 425.931 109.635, 425.953 109.988, 433.476 102.873 C 441.502 95.282, 441.862 93.600, 435.250 94.586 C 431.649 95.123, 429.294 96.348, 425.517 99.647 C 422.777 102.041, 419.937 104, 419.207 104 C 418.477 104, 415.431 101.684, 412.438 98.853 C 407.704 94.376, 406.345 93.644, 401.998 93.226 C 398.631 92.902, 397 93.119, 397 93.890 M 649 94.018 C 649 94.577, 652.150 98.007, 656 101.639 C 659.850 105.271, 663 108.989, 663 109.902 C 663 110.816, 660.300 114.234, 657 117.500 C 653.700 120.766, 651 124.014, 651 124.719 C 651 125.572, 652.516 126, 655.543 126 C 659.548 126, 660.656 125.467, 664.897 121.500 C 667.543 119.025, 670.468 117, 671.397 117 C 672.326 117, 675.251 119.025, 677.897 121.500 C 682.170 125.497, 683.226 126, 687.354 126 C 690.460 126, 692 125.576, 692 124.721 C 692 124.018, 689.075 120.543, 685.500 117 C 681.925 113.457, 679 110.020, 679 109.363 C 679 108.707, 681.925 105.601, 685.500 102.462 C 693.386 95.539, 693.722 94, 687.347 94 C 683.134 94, 682.192 94.474, 677.406 99 C 674.499 101.750, 671.556 104, 670.866 104 C 670.177 104, 667.216 101.525, 664.286 98.500 C 659.233 93.283, 658.703 93, 653.979 93 C 651.241 93, 649 93.458, 649 94.018 M 298 110 L 298 126 302 126 L 306 126 306 115.934 C 306 110.398, 306.441 105.045, 306.979 104.039 C 308.242 101.680, 313.126 100, 318.726 100 C 322.287 100, 323.726 100.573, 326.077 102.923 C 328.921 105.767, 329 106.119, 329 115.923 L 329 126 333 126 L 337 126 337 113.104 L 337 100.207 333.465 97.104 C 330.088 94.139, 329.541 94, 321.215 94.006 C 315.855 94.010, 311.504 94.532, 309.913 95.362 C 307.740 96.496, 307.030 96.495, 305.472 95.356 C 304.452 94.610, 302.354 94, 300.809 94 L 298 94 298 110 M 348.667 94.667 C 348.300 95.033, 348 100.799, 348 107.480 L 348 119.626 351.064 122.563 C 353.934 125.314, 354.717 125.522, 363.456 125.843 C 368.875 126.042, 373.624 125.736, 374.787 125.114 C 377.560 123.630, 379.610 125.991, 378.062 128.885 C 375.634 133.421, 373.345 134.029, 361.288 133.340 L 350 132.695 350 135.723 C 350 139.476, 351.980 140, 366.157 140 C 377.458 140, 381.302 138.807, 385.297 134.059 C 387.936 130.922, 388 130.536, 387.991 117.673 C 387.987 110.428, 387.699 102.138, 387.352 99.250 C 386.731 94.083, 386.668 94, 383.361 94 L 380 94 380 103.365 C 380 111.162, 379.671 113.149, 378.034 115.230 C 373.576 120.897, 362.653 121.623, 358.283 116.543 C 356.237 114.164, 356 112.858, 356 103.944 L 356 94 352.667 94 C 350.833 94, 349.033 94.300, 348.667 94.667 M 494.557 94.989 C 492.030 95.475, 489.607 96.876, 487.807 98.890 C 485.211 101.795, 485 102.652, 485 110.293 C 485 124.400, 487.549 126, 510.034 126 L 525.133 126 524.816 123.250 L 524.500 120.500 511 120 C 503.575 119.725, 496.938 119.136, 496.250 118.691 C 494.486 117.549, 494.696 114.331, 496.582 113.607 C 497.452 113.273, 504.427 113, 512.082 113 L 526 113 526 107.116 C 526 101.520, 525.804 101.056, 521.997 97.616 L 517.994 94 508.247 94.115 C 502.886 94.178, 496.726 94.572, 494.557 94.989 M 546.302 94.735 C 542.270 95.019, 540.418 95.741, 538.052 97.952 C 535.068 100.739, 535 101.011, 535 110.214 C 535 119.408, 535.071 119.694, 538.063 122.563 L 541.126 125.500 556.636 125.821 L 572.147 126.143 571.823 123.321 L 571.500 120.500 561 120.253 C 547.669 119.939, 546.364 119.605, 544.518 116.035 C 542.185 111.523, 542.571 106.338, 545.455 103.455 C 547.777 101.132, 548.530 101, 559.455 101 L 571 101 571 97.500 L 571 94 561.250 94.185 C 555.888 94.287, 549.161 94.534, 546.302 94.735 M 699 94.801 C 699 95.301, 703.050 102.616, 708 111.055 C 712.950 119.495, 717 127.005, 717 127.745 C 717 128.485, 715.895 130.195, 714.545 131.545 C 712.659 133.432, 711.038 134, 707.545 134 C 703.162 134, 703 134.107, 703 137 L 703 140 709.250 139.996 C 716.351 139.992, 721.138 137.738, 723.619 133.229 C 731.644 118.645, 743 96.849, 743 96.029 C 743 95.463, 741.009 95, 738.575 95 L 734.150 95 728.825 105.495 C 725.630 111.793, 722.900 115.991, 722 115.991 C 721.133 115.990, 717.967 111.459, 714.494 105.245 L 708.488 94.500 703.744 94.195 C 701.135 94.028, 699 94.300, 699 94.801 M 749 97 L 749 100 758.531 100 C 766.281 100, 768.176 100.294, 768.667 101.574 C 769.349 103.352, 764.200 108.989, 754.879 116.668 C 750.908 119.940, 749.012 122.226, 749.007 123.750 L 749 126 767.500 126 L 786 126 786 123 L 786 120 776.969 120 C 765.223 120, 764.384 118.650, 772.088 112.144 C 781.776 103.963, 787 98.357, 787 96.143 C 787 94.028, 786.756 94, 768 94 L 749 94 749 97 M 496.944 101.844 C 495.487 103.024, 494.895 104.285, 495.302 105.344 C 496.249 107.811, 515.751 107.811, 516.698 105.344 C 517.105 104.285, 516.513 103.024, 515.056 101.844 C 511.830 99.232, 500.170 99.232, 496.944 101.844 M 120 138.904 C 110.675 143.970, 104.412 147, 103.265 147 C 102.569 147, 102 147.441, 102 147.981 C 102 148.520, 100.763 149.243, 99.250 149.588 C 97.737 149.932, 94.587 151.106, 92.248 152.197 C 86.060 155.083, 69.699 158.967, 60.750 159.674 C 53.581 160.240, 53 160.453, 53 162.518 C 53 168.124, 68.652 166.782, 91.500 159.216 C 102.052 155.722, 126.794 141.423, 127.779 138.250 C 128.366 136.359, 124.011 136.725, 120 138.904" stroke="none" fill="#010001" fill-rule="evenodd"/><path d="M 582 104 L 582 126 585.500 126 L 589 126 589 117.065 C 589 106.469, 589.901 103.620, 593.907 101.548 C 599.610 98.599, 609.766 100.341, 611.379 104.545 C 611.720 105.435, 612 110.087, 612 114.882 C 612 124.631, 612.702 126, 617.700 126 L 621 126 621 113.516 C 621 101.128, 620.977 101.006, 618.076 97.766 L 615.152 94.500 602.826 94.554 C 595.260 94.587, 590.216 94.201, 589.765 93.554 C 589.361 92.974, 589.024 90.138, 589.015 87.250 L 589 82 585.500 82 L 582 82 582 104 M 244.352 84.092 C 242.620 84.594, 239.807 86.594, 238.102 88.537 L 235 92.070 235 104.574 L 235 117.077 238.926 121.289 L 242.852 125.500 259.552 125.819 C 277.888 126.169, 280.427 125.658, 284.520 120.794 C 286.878 117.991, 287 117.216, 287 105 C 287 92.498, 286.927 92.067, 284.297 88.941 C 279.981 83.812, 276.744 82.989, 261.282 83.090 C 253.702 83.140, 246.083 83.591, 244.352 84.092 M 454 87.566 C 454 91.157, 452.301 93.935, 449.439 95.023 C 448.098 95.533, 447 96.648, 447 97.500 C 447 98.352, 448.098 99.467, 449.439 99.977 C 453.071 101.358, 454 104.007, 454 112.980 C 454 120.258, 454.252 121.343, 456.455 123.545 C 458.699 125.790, 459.684 126, 467.955 126 L 477 126 477 123 C 477 120.030, 476.944 120, 471.500 120 C 463.795 120, 462 118.054, 462 109.700 C 462 106.133, 462.521 102.879, 463.200 102.200 C 463.879 101.521, 467.133 101, 470.700 101 L 477 101 477 97.500 L 477 94 470.700 94 C 463.521 94, 462 93.003, 462 88.300 C 462 85.117, 461.859 85, 458 85 C 454.373 85, 454 85.239, 454 87.566 M 249.480 90.870 C 244.458 93.151, 243 96.241, 243 104.597 C 243 116.862, 246.667 120, 261 120 C 275.675 120, 279.022 117.211, 278.965 105.027 C 278.925 96.685, 277.803 93.827, 273.433 90.946 C 269.382 88.276, 255.289 88.231, 249.480 90.870 M 298 110 L 298 126 302 126 L 306 126 306 115.934 C 306 110.398, 306.441 105.045, 306.979 104.039 C 308.242 101.680, 313.126 100, 318.726 100 C 322.287 100, 323.726 100.573, 326.077 102.923 C 328.921 105.767, 329 106.119, 329 115.923 L 329 126 333 126 L 337 126 337 113.104 L 337 100.207 333.465 97.104 C 330.088 94.139, 329.541 94, 321.215 94.006 C 315.440 94.010, 311.534 94.516, 309.636 95.506 C 305.988 97.409, 304 97.406, 304 95.500 C 304 94.500, 303 94, 301 94 L 298 94 298 110 M 348.667 94.667 C 348.300 95.033, 348 100.799, 348 107.480 L 348 119.626 351.064 122.563 C 354.051 125.426, 354.384 125.499, 364.314 125.462 C 369.916 125.441, 375.512 125.052, 376.750 124.596 C 378.651 123.895, 379 124.107, 379 125.960 C 379 127.167, 377.681 129.473, 376.069 131.085 L 373.137 134.017 361.569 133.356 L 350 132.695 350 135.723 C 350 139.476, 351.980 140, 366.157 140 C 377.067 140, 381.024 138.856, 385 134.551 C 387.317 132.042, 387.525 130.992, 387.843 120.172 C 388.032 113.753, 387.881 105.237, 387.508 101.250 L 386.829 94 383.415 94 L 380 94 380 103.365 C 380 111.162, 379.671 113.149, 378.034 115.230 C 373.576 120.897, 362.653 121.623, 358.283 116.543 C 356.299 114.236, 356 112.792, 356 105.526 C 356 100.927, 355.727 96.452, 355.393 95.582 C 354.790 94.010, 349.978 93.356, 348.667 94.667 M 403 94.658 C 402.175 94.933, 400.855 95.365, 400.067 95.618 C 399.085 95.933, 400.580 98.040, 404.817 102.316 C 408.218 105.747, 411 109.206, 411 110.003 C 411 110.801, 407.749 114.726, 403.775 118.726 L 396.550 126 402.417 126 C 407.924 126, 408.608 125.724, 413.552 121.500 C 416.449 119.025, 419.295 117, 419.876 117 C 420.458 117, 423.213 119.025, 426 121.500 C 430.559 125.549, 431.564 126, 436.033 126 C 438.765 126, 441 125.650, 441 125.221 C 441 124.793, 438.075 121.543, 434.500 118 C 430.925 114.457, 428 110.746, 428 109.754 C 428 108.762, 430.776 105.341, 434.168 102.152 C 441.155 95.585, 441.292 93.615, 434.690 94.656 C 431.760 95.117, 429.001 96.622, 425.517 99.658 C 422.777 102.046, 419.937 104, 419.207 104 C 418.477 104, 415.501 101.750, 412.594 99 C 407.483 94.167, 406.206 93.589, 403 94.658 M 494.557 94.989 C 492.030 95.475, 489.607 96.876, 487.807 98.890 C 485.206 101.801, 485 102.644, 485 110.381 C 485 124.464, 488.029 126.296, 510.500 125.805 L 524.500 125.500 524.500 123 L 524.500 120.500 511 120 C 503.575 119.725, 496.938 119.136, 496.250 118.691 C 494.486 117.549, 494.696 114.331, 496.582 113.607 C 497.452 113.273, 504.427 113, 512.082 113 L 526 113 526 107.116 C 526 101.520, 525.804 101.056, 521.997 97.616 L 517.994 94 508.247 94.115 C 502.886 94.178, 496.726 94.572, 494.557 94.989 M 546.302 94.735 C 542.270 95.019, 540.418 95.741, 538.052 97.952 C 535.068 100.739, 535 101.011, 535 110.214 C 535 119.408, 535.071 119.694, 538.063 122.563 L 541.126 125.500 556.636 125.821 L 572.147 126.143 571.823 123.321 L 571.500 120.500 561 120.253 C 547.669 119.939, 546.364 119.605, 544.518 116.035 C 542.185 111.523, 542.571 106.338, 545.455 103.455 C 547.777 101.132, 548.530 101, 559.455 101 L 571 101 571 97.500 L 571 94 561.250 94.185 C 555.888 94.287, 549.161 94.534, 546.302 94.735 M 677.500 99 C 674.791 101.750, 671.976 104, 671.245 104 C 670.513 104, 667.749 101.975, 665.103 99.500 C 661.025 95.685, 659.670 95, 656.205 95 C 653.957 95, 651.888 95.373, 651.606 95.828 C 651.325 96.283, 653.773 99.307, 657.047 102.547 C 660.321 105.787, 663 109.139, 663 109.998 C 663 110.856, 660.075 114.457, 656.500 118 C 652.925 121.543, 650 124.793, 650 125.221 C 650 125.650, 652.269 126, 655.043 126 C 659.640 126, 660.511 125.602, 664.897 121.500 C 667.543 119.025, 670.468 117, 671.397 117 C 672.326 117, 675.251 119.025, 677.897 121.500 C 682.468 125.776, 682.999 126, 688.580 126 L 694.453 126 686.727 118.228 C 682.477 113.953, 679 109.941, 679 109.312 C 679 108.684, 681.925 105.601, 685.500 102.462 C 693.429 95.501, 693.733 94, 687.212 94 C 682.791 94, 682.049 94.382, 677.500 99 M 699 94.801 C 699 95.301, 703.050 102.616, 708 111.055 C 712.950 119.495, 717 127.005, 717 127.745 C 717 128.485, 715.895 130.195, 714.545 131.545 C 712.659 133.432, 711.038 134, 707.545 134 C 703.162 134, 703 134.107, 703 137 L 703 140 709.250 139.996 C 716.351 139.992, 721.138 137.738, 723.619 133.229 C 731.644 118.645, 743 96.849, 743 96.029 C 743 95.463, 741.009 95, 738.575 95 L 734.150 95 728.825 105.495 C 725.630 111.793, 722.900 115.991, 722 115.991 C 721.133 115.990, 717.967 111.459, 714.494 105.245 L 708.488 94.500 703.744 94.195 C 701.135 94.028, 699 94.300, 699 94.801 M 751 97 L 751 100 761.500 100 C 770.262 100, 772 100.253, 772 101.531 C 772 102.374, 771.212 103.345, 770.250 103.691 C 769.288 104.036, 766.025 106.617, 763 109.426 C 759.975 112.236, 755.587 116.145, 753.250 118.113 C 750.673 120.283, 749 122.540, 749 123.846 C 749 125.974, 749.226 126, 767.500 126 L 786 126 786 123 L 786 120 776 120 C 768.123 120, 766 119.704, 766 118.608 C 766 117.843, 769.714 114.063, 774.254 110.209 C 785.822 100.388, 786.266 99.830, 785.053 96.640 L 784.050 94 767.525 94 L 751 94 751 97 M 496.944 101.844 C 495.487 103.024, 494.895 104.285, 495.302 105.344 C 495.838 106.740, 497.590 107, 506.469 107 C 516.231 107, 517 106.858, 517 105.057 C 517 101.738, 513.181 100, 505.888 100 C 500.899 100, 498.648 100.464, 496.944 101.844" stroke="none" fill="#fcfbf8" fill-rule="evenodd"/><path d="M 135.500 29.654 C 114.969 33.991, 95.727 41.572, 79.913 51.555 C 76.546 53.680, 76.065 54.412, 76.610 56.583 C 77 58.135, 76.555 60.661, 75.467 63.072 C 74.488 65.244, 73.902 67.235, 74.164 67.497 C 74.766 68.099, 84.980 62.741, 84.992 61.817 C 84.996 61.442, 84.100 60.849, 83 60.500 C 80.564 59.727, 80.500 58.655, 82.669 54.983 C 86.014 49.321, 93.227 48.140, 93.808 53.159 C 94.048 55.233, 93.441 56.217, 91.058 57.625 C 89.376 58.618, 88 59.839, 88 60.338 C 88 60.837, 88.563 60.788, 89.250 60.229 C 90.576 59.151, 96.203 55.923, 102 52.913 C 103.925 51.913, 109.195 50.639, 113.711 50.081 C 118.227 49.523, 122.727 48.624, 123.711 48.084 C 124.695 47.544, 127.638 46.827, 130.250 46.490 C 132.863 46.153, 135 45.396, 135 44.808 C 135 44.132, 133.712 43.971, 131.500 44.369 C 129.575 44.716, 126.425 45.284, 124.500 45.631 C 121.267 46.214, 121 46.072, 121 43.767 C 121 41.557, 121.530 41.199, 125.640 40.636 C 128.191 40.286, 131.968 40, 134.033 40 C 136.446 40, 137.991 39.465, 138.362 38.500 C 138.725 37.552, 140.330 36.974, 142.719 36.930 C 145.745 36.873, 146.100 36.688, 144.500 36 C 143.400 35.527, 140.813 35.109, 138.750 35.070 C 134.390 34.989, 133.527 32.586, 137.500 31.589 C 138.875 31.244, 140 30.520, 140 29.981 C 140 28.979, 139.032 28.908, 135.500 29.654 M 179.537 82.250 C 174.388 91.860, 166.957 102.801, 163.108 106.437 C 161.399 108.052, 160 109.852, 160 110.437 C 160 111.022, 158.415 112.765, 156.478 114.310 C 152.275 117.664, 152.602 118.763, 157.710 118.445 C 159.795 118.315, 162.736 118.162, 164.247 118.104 C 165.898 118.042, 168.600 116.549, 171.017 114.366 C 176.715 109.218, 184 98.136, 184 94.615 C 184 93.798, 184.522 91.863, 185.160 90.315 C 185.799 88.767, 186.221 86.904, 186.099 86.176 C 185.978 85.448, 186.389 84.236, 187.014 83.484 C 187.874 82.447, 187.740 81.255, 186.460 78.558 C 185.532 76.601, 184.468 75, 184.096 75 C 183.725 75, 181.673 78.263, 179.537 82.250 M 20.639 137.694 C 19.239 139.094, 20.110 147.595, 22.068 151.640 C 24.787 157.258, 29.547 161.313, 36.456 163.897 C 44.068 166.746, 44.749 166.653, 44.191 162.848 C 43.777 160.030, 43.955 159.755, 45.863 160.254 C 47.037 160.561, 48.220 160.454, 48.490 160.016 C 48.761 159.578, 47.299 158.906, 45.241 158.523 C 34.817 156.584, 26.734 150.285, 23.987 141.961 C 22.589 137.725, 21.718 136.615, 20.639 137.694 M 51.524 164.810 C 50.229 166.104, 51.242 167, 54 167 C 55.650 167, 57 166.602, 57 166.117 C 57 165.118, 52.329 164.004, 51.524 164.810 M 115.750 178.994 C 112.480 181.059, 113.984 182, 120.557 182 C 129.494 182, 141 183.982, 141 185.522 C 141 187.396, 136.350 187.966, 115.318 188.670 C 104.693 189.026, 96 189.722, 96 190.217 C 96 191.131, 163.809 190.624, 169.500 189.667 C 171.150 189.389, 173.927 189.126, 175.671 189.081 C 178.354 189.012, 178.942 188.539, 179.500 186 C 179.862 184.350, 180.573 183, 181.079 183 C 181.586 183, 182 182.598, 182 182.107 C 182 180.217, 168.499 178.923, 143.500 178.416 C 125.384 178.048, 116.969 178.223, 115.750 178.994" stroke="none" fill="#c9c8c7" fill-rule="evenodd"/><path d="M 140 29.402 C 140 30.173, 138.650 31.275, 137 31.850 C 132.845 33.299, 133.245 34.994, 137.750 35.029 C 139.813 35.045, 144.650 35.967, 148.500 37.079 C 160.171 40.447, 159.780 40.378, 157.750 38.714 C 156.787 37.925, 156 36.502, 156 35.552 C 156 34.077, 156.622 33.926, 160.250 34.519 C 167.746 35.744, 173.653 38.955, 179.301 44.877 C 186.653 52.585, 188.528 56.312, 186.957 60.103 C 186.233 61.852, 185.009 63, 183.870 63 C 182.162 63, 182.046 63.543, 182.654 68.717 C 183.053 72.104, 184.075 75.237, 185.163 76.406 C 187.575 78.994, 187.432 82.578, 184.542 92 C 183.979 93.836, 184.074 94.218, 184.901 93.437 C 186.791 91.651, 188.964 79.001, 188.983 69.677 C 188.998 61.818, 189.191 60.890, 190.750 61.189 C 192.819 61.586, 194.864 66.979, 194.944 72.250 C 194.975 74.370, 195.498 76, 196.147 76 C 197.964 76, 196.342 61.497, 193.744 54.523 C 192.023 49.905, 189.867 46.849, 184.500 41.425 C 173.789 30.598, 167.321 28.028, 150.750 28.011 C 142.189 28.002, 140 28.286, 140 29.402 M 134.879 45.455 C 134.643 45.691, 131.761 46.343, 128.475 46.903 C 116.803 48.894, 102.656 52.040, 101.586 52.881 C 99.049 54.876, 88.985 60, 87.604 60 C 86.776 60, 85.740 60.614, 85.300 61.365 C 84.308 63.057, 78.679 66, 76.433 66 C 75.161 66, 74.935 65.467, 75.477 63.750 C 76.822 59.487, 77.055 56.496, 76.147 55.132 C 75.424 54.046, 73.925 54.650, 68.868 58.065 C 61.232 63.221, 55.043 68.219, 55.018 69.250 C 55.008 69.662, 56.125 70, 57.500 70 C 59.611 70, 60 70.467, 60 73 C 60 76.831, 62.305 76.957, 69.187 73.500 C 71.924 72.125, 75.079 71, 76.196 71 C 77.314 71, 82.684 68.080, 88.130 64.512 C 93.576 60.944, 99.712 57.171, 101.766 56.128 C 107.908 53.008, 121.797 49, 126.468 49 C 130.267 49, 130.990 49.356, 132.050 51.750 L 133.267 54.500 146.053 54.500 C 157.936 54.500, 159.008 54.659, 161.234 56.750 C 164.171 59.509, 165 59.576, 165 57.051 C 165 54.006, 159.179 50.310, 150.987 48.152 C 142.798 45.995, 135.552 44.781, 134.879 45.455 M 175 63.059 C 175 67.510, 175.369 69.890, 176 69.500 C 176.550 69.160, 177 66.884, 177 64.441 C 177 61.160, 177.392 60, 178.500 60 C 180.617 60, 180.363 58.265, 178.066 57.035 C 177.002 56.466, 175.877 56, 175.566 56 C 175.255 56, 175 59.177, 175 63.059 M 44.973 77.527 C 41.445 81.087, 38.995 83.990, 39.529 83.977 C 40.839 83.947, 52.535 72.202, 51.894 71.561 C 51.616 71.283, 48.501 73.967, 44.973 77.527 M 580 103.500 C 580 117.833, 580.363 126, 581 126 C 581.637 126, 582 117.833, 582 103.500 C 582 89.167, 581.637 81, 581 81 C 580.363 81, 580 89.167, 580 103.500 M 163.818 84.621 C 162.084 88.591, 152.450 103.604, 151.101 104.438 C 150.495 104.812, 150 106.216, 150 107.559 C 150 108.966, 149.416 110, 148.622 110 C 147.865 110, 146.695 110.662, 146.023 111.472 C 145.045 112.650, 145.126 113.269, 146.425 114.568 C 147.923 116.066, 148.558 115.641, 154.640 109.072 C 162.011 101.111, 169.347 90.386, 168.615 88.643 C 168.351 88.014, 167.827 88.513, 167.451 89.750 C 167.075 90.987, 166.144 92, 165.383 92 C 163.746 92, 163.595 89.196, 165.028 85.426 C 166.432 81.734, 165.383 81.036, 163.818 84.621 M 396.570 93.887 C 396.269 94.374, 396.652 95.296, 397.422 95.935 C 398.380 96.731, 399.026 96.766, 399.470 96.049 C 399.826 95.472, 400.965 95, 402 95 C 403.035 95, 404.160 94.550, 404.500 94 C 404.873 93.397, 403.530 93, 401.118 93 C 398.918 93, 396.871 93.399, 396.570 93.887 M 648.570 93.887 C 648.269 94.374, 648.652 95.296, 649.422 95.935 C 650.380 96.731, 651.026 96.766, 651.470 96.049 C 651.826 95.472, 654.143 95, 656.618 95 C 659.363 95, 660.877 94.610, 660.500 94 C 659.736 92.764, 649.325 92.665, 648.570 93.887 M 749.667 93.667 C 748.672 94.661, 748.861 100, 749.891 100 C 750.380 100, 750.965 98.425, 751.190 96.500 C 751.582 93.143, 751.095 92.238, 749.667 93.667 M 28.147 97.137 C 25.269 101.745, 23 106.106, 23 107.030 C 23 109.588, 25.034 107.442, 27.531 102.250 C 29.052 99.088, 30.482 96.162, 30.707 95.750 C 31.698 93.940, 29.348 95.213, 28.147 97.137 M 768.710 102 C 769.320 104.331, 770.309 104.537, 771.869 102.658 C 773.173 101.086, 772.380 100, 769.927 100 C 768.680 100, 768.335 100.566, 768.710 102 M 177.602 106.802 C 176.806 108.343, 174.104 111.493, 171.599 113.802 C 167.109 117.941, 166.941 118, 159.677 118 C 153.397 118, 152.029 118.317, 150.405 120.149 C 149.357 121.331, 145.169 125.156, 141.097 128.649 C 133.444 135.215, 130 136.565, 130 133 C 130 131.889, 129.333 131, 128.500 131 C 127.675 131, 127 131.509, 127 132.131 C 127 132.857, 125.792 133.066, 123.627 132.714 C 121.203 132.321, 119.305 132.767, 116.877 134.300 C 113.732 136.286, 113.655 136.457, 115.750 136.786 C 116.987 136.980, 118 137.558, 118 138.070 C 118 138.581, 118.450 139, 119 139 C 119.550 139, 120 138.100, 120 137 C 120 135.667, 120.667 135, 122 135 C 123.100 135, 124 135.450, 124 136 C 124 136.550, 124.675 137, 125.500 137 C 133.772 137, 107.219 154.043, 90.582 159.412 C 72.896 165.120, 66.459 166.308, 53.541 166.251 C 44.676 166.211, 41.351 165.767, 36.668 163.998 C 26.159 160.028, 20 152.153, 20 142.684 C 20 136.653, 22.156 136.412, 24.075 142.228 C 26.795 150.467, 33.967 155.774, 46.750 159.003 C 49.941 159.809, 51 160.566, 51 162.039 C 51 163.117, 51.450 164, 52 164 C 52.550 164, 53 163.100, 53 162 C 53 160.282, 53.670 159.998, 57.750 159.989 C 63.629 159.975, 70 158.969, 70 158.053 C 70 157.676, 65.388 156.830, 59.750 156.173 C 46.525 154.633, 34.883 150.792, 29.963 146.348 C 25.548 142.359, 23.485 138.295, 22.554 131.750 C 22.182 129.137, 21.491 127, 21.018 127 C 20.546 127, 19.840 129.982, 19.449 133.628 C 18.884 138.908, 18.360 140.355, 16.870 140.744 C 12.983 141.761, 15.515 153.681, 21.552 162.782 C 23.971 166.430, 36.564 173.190, 44.105 174.888 C 51.687 176.596, 55 176.978, 55 176.144 C 55 175.701, 56.116 174.741, 57.479 174.011 C 59.390 172.989, 59.824 172.147, 59.371 170.342 C 58.843 168.237, 59.123 167.998, 62.142 167.976 C 63.989 167.962, 67.429 167.506, 69.787 166.962 C 78.110 165.042, 91 168.711, 91 173 C 91 174.473, 95.003 174.218, 100.322 172.406 C 105.505 170.640, 105.947 169.791, 103 167.268 C 100.425 165.063, 100.439 163, 103.029 163 C 106.082 163, 122.531 157.376, 124.649 155.609 C 138.942 143.676, 148.879 137, 152.345 137 C 156.126 137, 166.297 126.665, 173.859 115.141 C 177.237 109.993, 180 105.380, 180 104.891 C 180 103.235, 179.059 103.986, 177.602 106.802 M 19.553 113.915 C 18.707 115.283, 15 126.065, 15 127.157 C 15 127.620, 15.342 128, 15.760 128 C 16.660 128, 21.340 114.006, 20.665 113.331 C 20.409 113.076, 19.909 113.338, 19.553 113.915 M 68 150.958 C 63.360 151.396, 62.019 151.813, 63.314 152.417 C 65.528 153.450, 74.954 152.446, 76.373 151.027 C 77.076 150.324, 76.942 150.055, 75.950 150.173 C 75.153 150.268, 71.575 150.621, 68 150.958 M 39 181.474 C 39 182.285, 40.237 183.572, 41.750 184.333 C 45.276 186.109, 52 187.161, 52 185.937 C 52 185.422, 51.401 185, 50.669 185 C 49.938 185, 47.125 183.877, 44.419 182.504 C 38.607 179.555, 39 179.630, 39 181.474 M 107.134 182.079 C 101.619 184.526, 87.125 188.262, 85.525 187.648 C 83.801 186.987, 81.616 188.569, 82.431 189.888 C 83.227 191.177, 96 191.431, 96 190.158 C 96 189.696, 104.662 189.019, 115.250 188.654 C 136.606 187.919, 142.256 187.270, 141.706 185.613 C 141.191 184.064, 129.939 182.103, 121.250 182.047 C 117.114 182.020, 114 181.570, 114 181 C 114 179.570, 112.124 179.864, 107.134 182.079" stroke="none" fill="#79797a" fill-rule="evenodd"/><path d="M 53.359 86.188 C 52.393 88.010, 51.721 90.287, 51.864 91.250 C 52.008 92.213, 51.647 93, 51.063 93 C 50.478 93, 50 93.649, 50 94.443 C 50 95.236, 49.007 97.568, 47.794 99.624 C 46.254 102.234, 45.952 103.484, 46.794 103.765 C 49.008 104.503, 48.038 106.631, 43.813 110.312 C 41.510 112.318, 39.868 114.202, 40.164 114.498 C 40.750 115.083, 45.929 112.637, 46.900 111.316 C 47.230 110.867, 48.400 109.999, 49.500 109.386 C 50.600 108.773, 51.536 107.198, 51.579 105.886 C 51.719 101.648, 51.974 101, 53.500 101 C 54.333 101, 55 100.111, 55 99 C 55 97.900, 55.645 97, 56.433 97 C 58.178 97, 58.809 95.037, 59.167 88.500 C 59.411 84.036, 59.209 83.467, 57.278 83.188 C 55.688 82.959, 54.650 83.753, 53.359 86.188 M 30.630 99.250 C 30.299 100.487, 30.021 102.444, 30.014 103.597 C 30.006 104.750, 29.100 106.732, 28 108 C 26.900 109.268, 26 110.912, 26 111.653 C 26 112.394, 25.602 113, 25.117 113 C 24.631 113, 23.992 114.013, 23.697 115.250 C 23.403 116.487, 22.848 118.513, 22.464 119.750 C 21.939 121.443, 22.167 122, 23.383 122 C 24.349 122, 25 122.829, 25 124.059 C 25 127.183, 26.574 125.569, 29.642 119.299 C 31.562 115.375, 32.042 113.514, 31.206 113.235 C 29.517 112.672, 29.694 110, 31.421 110 C 32.202 110, 33.127 108.697, 33.477 107.104 C 33.827 105.511, 34.939 103.460, 35.948 102.547 C 38.594 100.153, 37.486 97, 34 97 C 31.976 97, 31.071 97.604, 30.630 99.250 M 183.568 102.250 C 182.568 104.588, 180.399 108.655, 178.747 111.288 C 177.094 113.921, 175.961 116.295, 176.228 116.562 C 177.185 117.519, 179.813 115.825, 180.308 113.931 C 180.592 112.844, 181.677 112, 182.791 112 C 184.439 112, 184.884 111.082, 185.455 106.516 C 185.832 103.499, 186.558 100.773, 187.070 100.457 C 188.445 99.607, 188.198 98, 186.692 98 C 185.973 98, 184.567 99.912, 183.568 102.250 M 177.598 120.606 C 177.172 121.714, 176.256 122.030, 174.643 121.625 C 172.867 121.179, 172.055 121.575, 171.271 123.269 C 170.703 124.496, 168.319 127.670, 165.972 130.321 C 162.605 134.126, 161.232 135.024, 159.467 134.581 C 158.113 134.241, 156.740 134.608, 155.992 135.510 C 155.134 136.544, 155.099 137, 155.878 137 C 160.288 137, 149.259 147.834, 135.869 156.656 C 128.949 161.214, 126.999 163, 128.941 163 C 129.523 163, 130 163.900, 130 165 C 130 166.111, 129.333 167, 128.500 167 C 127.675 167, 127 166.325, 127 165.500 C 127 164.675, 126.666 164, 126.257 164 C 125.848 164, 120.560 166.447, 114.507 169.439 C 108.453 172.430, 100.462 175.844, 96.750 177.025 C 91.517 178.691, 90 179.603, 90 181.087 C 90 182.333, 89.303 183, 88 183 C 86.900 183, 86 183.486, 86 184.079 C 86 186.096, 107.081 180.809, 112.660 177.393 C 114.772 176.100, 118.020 174.327, 119.879 173.454 C 121.737 172.580, 126.170 170.096, 129.731 167.933 C 133.291 165.770, 136.561 164, 136.996 164 C 137.432 164, 139.265 162.621, 141.069 160.935 C 143.487 158.677, 144.961 158.024, 146.675 158.455 C 148.399 158.887, 149 158.615, 149 157.402 C 149 156.269, 149.603 155.924, 150.963 156.280 C 153.364 156.908, 155.265 154.855, 154.392 152.578 C 153.937 151.393, 155.422 149.242, 159.465 145.232 C 162.609 142.112, 164.691 139.397, 164.091 139.197 C 162.480 138.660, 162.764 135, 164.417 135 C 165.196 135, 166.067 135.563, 166.352 136.250 C 166.702 137.093, 167.544 136.686, 168.935 135 C 170.071 133.625, 171.512 131.890, 172.138 131.144 C 173 130.118, 172.950 129.587, 171.934 128.959 C 169.963 127.741, 172.773 122.707, 175.087 123.312 C 176.522 123.688, 180 120.980, 180 119.489 C 180 118.297, 178.154 119.155, 177.598 120.606 M 24.566 132.689 C 24.192 133.664, 24.361 134.620, 24.943 134.814 C 25.524 135.008, 26 135.999, 26 137.017 C 26 139.565, 34.613 147.717, 38.747 149.081 C 42.435 150.299, 44.550 149.447, 41.742 147.875 C 40.784 147.339, 39.986 146.135, 39.968 145.200 C 39.925 142.912, 37.211 139.442, 36.260 140.460 C 35.842 140.908, 36.063 141.475, 36.750 141.720 C 37.438 141.966, 38 142.804, 38 143.583 C 38 145.328, 35.015 145.491, 34.961 143.750 C 34.940 143.063, 33.478 141.592, 31.711 140.483 C 29.400 139.031, 28.360 137.511, 28 135.062 C 27.440 131.254, 25.604 129.984, 24.566 132.689 M 47.436 150.104 C 46.618 151.427, 46.927 151.693, 50.252 152.527 C 53.681 153.388, 53.883 151.724, 50.536 150.198 C 48.865 149.437, 47.867 149.407, 47.436 150.104" stroke="none" fill="#292427" fill-rule="evenodd"/><path d="M 138.382 38.191 C 137.977 38.846, 138.176 39.559, 138.823 39.774 C 140.350 40.283, 140.337 43.263, 138.800 44.800 C 137.867 45.733, 138.260 46, 140.570 46 C 145.404 46, 158.263 49.963, 161.500 52.450 C 163.597 54.062, 165.086 56.626, 166.446 60.968 C 168.539 67.650, 168.643 66.290, 164.294 89.250 C 163.900 91.329, 164.167 92, 165.387 92 C 166.274 92, 167 91.395, 167 90.655 C 167 89.915, 167.877 88.517, 168.948 87.547 C 172.256 84.554, 175 74.089, 175 64.471 C 175 56.553, 174.760 55.512, 172.021 51.531 C 167.965 45.636, 162.564 41.567, 155.495 39.083 C 148.986 36.795, 139.549 36.303, 138.382 38.191" stroke="none" fill="#7dd8f1" fill-rule="evenodd"/><path d="" stroke="none" fill="#010001" fill-rule="evenodd"/><path d="" stroke="none" fill="#010001" fill-rule="evenodd"/><path d="M 127.578 39.874 C 127.195 40.493, 125.559 41, 123.941 41 C 122.323 41, 121 41.400, 121 41.889 C 121 42.377, 119.425 43.073, 117.500 43.434 C 115.575 43.795, 114 44.579, 114 45.177 C 114 45.928, 116.393 46.038, 121.750 45.534 C 126.013 45.133, 131.667 44.737, 134.317 44.653 C 137.675 44.546, 139.420 43.990, 140.079 42.817 C 141.327 40.595, 140.195 39.979, 133.611 39.299 C 130.173 38.944, 128.026 39.149, 127.578 39.874 M 98.250 49.031 C 97.013 49.529, 96 50.663, 96 51.551 C 96 52.440, 96.338 52.982, 96.750 52.756 C 97.162 52.530, 98.963 51.719, 100.750 50.953 C 106.186 48.625, 103.808 46.797, 98.250 49.031 M 22 147.156 C 22 149.279, 29.295 158, 31.071 158 C 32.726 158, 32.054 155.099, 30.165 154.089 C 29.156 153.549, 27.244 151.511, 25.915 149.560 C 23.464 145.960, 22 145.061, 22 147.156 M 43.732 161.916 C 43.079 164.415, 44.748 166, 48.033 166 C 51.384 166, 51.822 165.519, 51.240 162.476 C 50.852 160.443, 50.182 160, 47.500 160 C 45.122 160, 44.097 160.521, 43.732 161.916 M 181.250 182.618 C 180.563 182.920, 180 183.804, 180 184.583 C 180 185.363, 179.325 186, 178.500 186 C 176.655 186, 176.519 187.602, 178.307 188.287 C 180.478 189.121, 190.140 186.799, 190.713 185.307 C 191.007 184.541, 191.062 183.729, 190.836 183.503 C 190.090 182.756, 182.525 182.058, 181.250 182.618" stroke="none" fill="#cecfc8" fill-rule="evenodd"/><path d="M 155.459 35.067 C 154.606 36.447, 157.892 39.410, 162.621 41.524 C 166.073 43.067, 175 52.454, 175 54.541 C 175 55.269, 175.807 56.121, 176.794 56.435 C 177.780 56.748, 179.018 58.465, 179.544 60.252 C 180.339 62.953, 180.921 63.442, 183 63.155 C 184.375 62.965, 185.650 62.402, 185.833 61.905 C 186.017 61.407, 186.804 61, 187.583 61 C 188.692 61, 189 62.808, 189 69.316 C 189 79.854, 187.504 88.008, 184.287 95 C 182.895 98.025, 180.938 102.386, 179.939 104.690 C 177.416 110.510, 170.514 120.590, 162.915 129.554 C 157.286 136.195, 156.172 137.058, 153.823 136.601 C 150.337 135.922, 142.058 141.317, 124.728 155.561 C 122.616 157.297, 112.995 160.725, 104.076 162.920 C 96.792 164.711, 94.740 167, 100.417 167 C 103.348 167, 104 167.368, 104 169.025 C 104 171.264, 100.844 172.871, 94.750 173.733 C 91.732 174.160, 91 173.945, 91 172.632 C 91 171.734, 90.550 171, 90 171 C 89.450 171, 89 170.164, 89 169.143 C 89 167.535, 87.933 167.213, 81.037 166.740 C 76.657 166.440, 71.369 166.590, 69.287 167.073 C 67.204 167.557, 63.587 167.963, 61.250 167.976 C 58.913 167.989, 57 168.450, 57 169 C 57 169.550, 57.450 170, 58 170 C 59.823 170, 59.036 172.862, 56.777 174.443 C 52.417 177.498, 43.976 176.081, 32.750 170.411 C 26.670 167.340, 26 167.189, 26 168.889 C 26 170.837, 33.956 178.530, 37.500 180.009 C 38.600 180.468, 42.200 181.890, 45.500 183.170 C 48.800 184.449, 51.950 185.999, 52.500 186.615 C 54.921 189.323, 82 191.513, 82 189 C 82 188.450, 83.237 187.998, 84.750 187.997 C 88.174 187.992, 102.206 184.129, 111.496 180.633 C 115.343 179.185, 119.683 178, 121.139 178 C 122.595 178, 124.006 177.428, 124.274 176.729 C 124.542 176.029, 127.355 174.117, 130.524 172.479 C 133.694 170.840, 137.460 168.369, 138.893 166.986 C 140.327 165.604, 142.782 163.905, 144.350 163.212 C 145.917 162.519, 147.421 161.104, 147.692 160.068 C 147.963 159.032, 149.077 157.952, 150.167 157.667 C 151.859 157.224, 151.981 156.833, 150.998 154.996 C 150.364 153.812, 150.092 152.204, 150.392 151.422 C 151.098 149.582, 154 149.570, 154 151.406 C 154 152.359, 154.725 152.637, 156.250 152.268 C 158.875 151.633, 163 148.142, 163 146.556 C 163 145.953, 165.925 142.795, 169.500 139.538 C 173.075 136.281, 176 133.097, 176 132.463 C 176 131.829, 176.900 130.495, 178 129.500 C 179.100 128.505, 180 127.262, 180 126.739 C 180 126.217, 181.125 124.452, 182.500 122.817 C 183.875 121.183, 185.286 118.643, 185.635 117.173 C 185.983 115.703, 186.817 113.825, 187.488 113 C 189.426 110.615, 192 104.857, 192 102.905 C 192 101.922, 192.450 100.840, 193 100.500 C 193.550 100.160, 194 98.371, 194 96.524 C 194 94.678, 194.407 93.017, 194.905 92.833 C 196.147 92.376, 196.473 88.095, 195.526 84.673 C 195.019 82.839, 195.212 80.971, 196.076 79.358 C 196.982 77.665, 197.072 76.651, 196.357 76.185 C 195.779 75.808, 195.025 73.066, 194.681 70.092 C 194.274 66.563, 193.092 63.299, 191.278 60.696 C 189.750 58.503, 187.436 55.086, 186.136 53.104 C 182.019 46.827, 173.836 39.175, 169.086 37.159 C 162.834 34.506, 156.414 33.521, 155.459 35.067 M 113 51.867 C 102.726 55.239, 100.734 56.254, 87.969 64.617 C 82.477 68.216, 77.424 70.970, 76.741 70.736 C 76.059 70.502, 72.969 71.591, 69.876 73.155 C 66.783 74.720, 63.250 76, 62.026 76 C 60 76, 59.831 75.593, 60.157 71.500 C 60.497 67.213, 59.842 65.829, 58.500 68 C 58.160 68.550, 56.772 69, 55.416 69 C 53.788 69, 52.649 69.765, 52.064 71.250 C 51.036 73.859, 41.339 83.353, 38.727 84.307 C 37.752 84.663, 36.651 85.752, 36.280 86.727 C 35.910 87.702, 34.570 89.320, 33.303 90.323 C 32.036 91.325, 31 92.816, 31 93.636 C 31 96.294, 24.832 108, 23.431 108 C 21.786 108, 19.666 111.650, 20.514 113.022 C 21.345 114.367, 16.938 127.308, 15.312 128.300 C 14.449 128.826, 14 131.295, 14 135.517 C 14 141.752, 14.065 141.912, 16.250 141.109 C 17.575 140.622, 18.615 139.300, 18.780 137.891 C 19.375 132.805, 20.093 131, 21.519 131 C 22.447 131, 23 131.970, 23 133.599 C 23 137.501, 25.756 142.547, 29.963 146.348 C 34.932 150.837, 46.317 154.519, 61.095 156.416 C 71.937 157.808, 73.173 157.785, 80.095 156.062 C 89.366 153.755, 93 152.337, 93 151.025 C 93 150.461, 94.313 150, 95.918 150 C 99.845 150, 102 149.076, 102 147.393 C 102 146.571, 103.032 146, 104.518 146 C 107.378 146, 116.647 141.441, 117.763 139.485 C 118.168 138.774, 119.579 138.037, 120.898 137.846 C 122.217 137.656, 123.792 136.619, 124.398 135.542 C 126.316 132.134, 128.003 130.787, 129.590 131.396 C 130.579 131.776, 132.711 130.382, 135.559 127.493 C 137.995 125.022, 140.353 123, 140.798 123 C 141.243 123, 143.056 121.506, 144.826 119.679 C 147.997 116.408, 148.017 116.326, 146.188 114.217 L 144.331 112.076 140.666 115.830 C 138.650 117.895, 137 120.128, 137 120.792 C 137 121.456, 136.126 122, 135.057 122 C 133.988 122, 132.519 122.787, 131.791 123.750 C 130.343 125.668, 127.740 127.469, 124.224 128.987 C 122.973 129.528, 121.648 130.764, 121.280 131.735 C 120.291 134.348, 118.560 135.821, 115.611 136.561 C 114.165 136.924, 112.734 137.622, 112.432 138.111 C 112.129 138.600, 110.784 139, 109.441 139 C 108.098 139, 107 139.450, 107 140 C 107 140.550, 106.155 141, 105.122 141 C 104.090 141, 102.685 141.675, 102 142.500 C 101.315 143.325, 100.023 144.014, 99.128 144.032 C 98.232 144.049, 96.626 144.724, 95.559 145.532 C 94.491 146.339, 92.634 147, 91.431 147 C 90.229 147, 88.685 147.675, 88 148.500 C 86.557 150.238, 83.418 150.485, 82.460 148.935 C 82.020 148.223, 81.253 148.364, 80.151 149.360 C 77.763 151.515, 69.567 153.339, 65.017 152.729 C 58.087 151.800, 52.618 149.142, 50.678 145.761 C 49.682 144.026, 48.468 139.100, 47.979 134.814 C 47.207 128.045, 47.337 126.526, 48.970 123.260 C 50.004 121.192, 51.493 118.150, 52.277 116.500 C 53.062 114.850, 55.570 110.471, 57.852 106.768 C 60.133 103.066, 62 99.682, 62 99.250 C 62 98.817, 63.084 97.797, 64.409 96.982 C 65.734 96.167, 71.332 91.225, 76.848 86 C 86.227 77.116, 96.342 69.884, 105.210 65.721 C 107.295 64.742, 109 63.545, 109 63.059 C 109 62.573, 110.848 61.864, 113.106 61.482 C 115.364 61.101, 118.005 59.995, 118.974 59.026 C 119.989 58.011, 123.119 56.966, 126.353 56.562 C 132.742 55.763, 133.773 54.813, 131.949 51.405 C 130.872 49.391, 129.916 49.006, 126.081 49.038 C 123.561 49.059, 117.675 50.332, 113 51.867 M 54 86 C 54 87.333, 54.667 88, 56 88 C 57.333 88, 58 87.333, 58 86 C 58 84.667, 57.333 84, 56 84 C 54.667 84, 54 84.667, 54 86 M 52 91.875 C 52 93.179, 52.962 93.942, 55.160 94.382 C 58.923 95.135, 59.393 94.813, 58.524 92.075 C 57.629 89.254, 52 89.081, 52 91.875 M 48.667 97.667 C 47.513 98.820, 47.943 102.001, 49.250 101.986 C 52.068 101.956, 55 100.688, 55 99.500 C 55 98.803, 53.987 97.962, 52.750 97.630 C 49.864 96.857, 49.473 96.860, 48.667 97.667 M 29.607 105.582 C 28.603 108.199, 28.904 109, 30.893 109 C 32.628 109, 34 107.197, 34 104.918 C 34 103.346, 30.247 103.913, 29.607 105.582 M 181 108.927 C 181 110.358, 181.642 111, 183.073 111 C 185.636 111, 185.345 107.690, 182.739 107.188 C 181.539 106.957, 181 107.496, 181 108.927 M 26 111.500 C 26 112.325, 25.550 113, 25 113 C 24.450 113, 24 113.675, 24 114.500 C 24 116.313, 26.599 116.503, 27.417 114.750 C 27.883 113.750, 28.117 113.750, 28.583 114.750 C 29.401 116.503, 32 116.313, 32 114.500 C 32 113.675, 31.325 113, 30.500 113 C 29.675 113, 29 112.325, 29 111.500 C 29 110.675, 28.325 110, 27.500 110 C 26.675 110, 26 110.675, 26 111.500 M 476.808 122.483 C 477.034 124.417, 477.648 126, 478.173 126 C 479.457 126, 478.780 119.746, 477.449 119.310 C 476.799 119.097, 476.554 120.308, 476.808 122.483" stroke="none" fill="#282526" fill-rule="evenodd"/></svg>