<svg xmlns="http://www.w3.org/2000/svg" version="1.1" xmlns:xlink="http://www.w3.org/1999/xlink" width="1536" height="1024"><svg xmlns="http://www.w3.org/2000/svg" width="1536" height="1024" viewBox="0 0 1536 1024" version="1.1"><path d="M 442 418.392 C 428.364 423.321, 425.684 424.860, 399.030 443.078 C 395.472 445.510, 391.422 448.527, 390.030 449.783 C 388.457 451.202, 386.744 451.867, 385.500 451.540 C 384.400 451.252, 382.598 450.763, 381.495 450.455 C 380.288 450.118, 378.696 450.629, 377.495 451.739 C 376.398 452.753, 373.250 455.124, 370.500 457.007 C 363.443 461.839, 357.560 467.433, 351.311 475.250 C 346.932 480.727, 345.380 482, 343.080 482 C 339.971 482, 338.635 483.197, 337.497 487 C 337.085 488.375, 335.047 493.550, 332.967 498.500 C 326.222 514.550, 326.642 524.361, 334.413 532.357 C 343.169 541.366, 357.732 546.277, 375.750 546.296 C 386.280 546.307, 387 546.434, 387 548.282 C 387 550.041, 387.461 550.184, 391.250 549.592 C 397.905 548.554, 420.645 540.564, 429.754 536.063 C 437.657 532.159, 437.955 531.890, 436.754 529.743 C 436.064 528.509, 435.432 527.357, 435.349 527.183 C 435.267 527.008, 433.017 527.957, 430.349 529.292 C 427.682 530.626, 421.675 533.095, 417 534.778 C 392.292 543.673, 380.085 544.733, 367.643 539.065 C 364.016 537.413, 362.899 536.193, 361.025 531.836 C 357.815 524.376, 358.523 513.402, 362.876 503.110 C 375.929 472.251, 411.067 441.594, 448.976 427.990 C 453.638 426.317, 457.772 424.622, 458.162 424.224 C 459.202 423.164, 452.276 415.996, 450.237 416.021 C 449.281 416.033, 445.575 417.100, 442 418.392 M 1015.500 483.490 L 1015.500 511.001 1018 511.014 C 1019.375 511.021, 1021.513 511.299, 1022.750 511.630 C 1024.998 512.233, 1025 512.224, 1025 499.304 C 1025 486.501, 1025.027 486.348, 1027.750 483.751 C 1029.263 482.308, 1031.767 480.649, 1033.315 480.064 C 1037.265 478.571, 1044.443 478.741, 1048.466 480.421 C 1053.861 482.676, 1055 486.079, 1055 499.950 L 1055 512 1059.750 511.996 L 1064.500 511.992 1064.500 496.213 C 1064.500 478.097, 1063.825 476.098, 1056.666 473.025 C 1051.107 470.639, 1036.460 470.432, 1030.890 472.661 C 1028.705 473.535, 1026.636 473.970, 1026.293 473.627 C 1025.950 473.283, 1025.461 469.402, 1025.206 465.001 L 1024.743 457 1021.453 457 C 1019.644 457, 1017.564 456.770, 1016.832 456.490 C 1015.743 456.072, 1015.500 460.992, 1015.500 483.490 M 531.552 458.250 C 531.340 458.938, 530.207 462.795, 529.033 466.822 C 525.827 477.821, 515.325 498.097, 506.929 509.500 C 500.290 518.515, 479.080 538.113, 466.698 546.673 C 450.172 558.097, 429.592 568.185, 414.500 572.259 C 403.005 575.362, 401.721 575.498, 384 575.499 C 364.048 575.500, 359.151 574.554, 346.604 568.270 C 342.360 566.145, 341.391 565.988, 339.326 567.093 L 336.944 568.368 341.656 572.693 C 347.546 578.102, 360.317 584.634, 368.938 586.650 C 373.228 587.653, 380.693 588.201, 390.500 588.232 C 403.134 588.271, 406.762 587.923, 413.500 586.022 C 417.900 584.781, 422.993 583.409, 424.817 582.973 C 429.820 581.778, 447.279 574.834, 449.079 573.325 C 449.947 572.596, 451.202 572, 451.869 572 C 455.189 572, 474.106 559.997, 484.641 551.206 C 493.937 543.448, 511.244 525.797, 516.706 518.503 C 523.800 509.030, 530.600 497.498, 534.165 488.892 C 537.574 480.661, 542 465.677, 542 462.364 C 542 459.977, 539.678 458.587, 536.250 458.923 C 535.013 459.044, 534 458.661, 534 458.072 C 534 456.580, 532.022 456.725, 531.552 458.250 M 606 457.993 C 599.496 459.200, 593.083 463.921, 590.122 469.684 C 588.360 473.115, 588.673 495.282, 590.548 499.768 C 594.570 509.396, 601.236 512, 621.856 512 C 631.961 512, 638.206 511.534, 641.596 510.527 C 646.876 508.959, 652.267 504.283, 653.733 500 C 654.381 498.106, 654.662 474.413, 654.091 469.756 C 653.802 467.399, 644.797 460.018, 640.881 458.929 C 636.112 457.603, 611.646 456.946, 606 457.993 M 858.795 464.539 C 859.287 470.473, 857.689 472.475, 853.009 471.788 C 850.124 471.365, 850 471.499, 850 475.066 C 850 478.984, 851.136 480, 855.514 480 C 858.697 480, 859.217 482.163, 858.851 493.863 C 858.597 501.970, 858.855 504.130, 860.350 506.411 C 863.233 510.812, 867.840 512.153, 878.871 511.805 L 888.542 511.500 888.544 507.846 L 888.545 504.191 880.802 503.839 C 870.323 503.364, 869.603 502.566, 869.150 490.939 C 868.687 479.081, 868.999 478.724, 879.445 479.162 L 887.500 479.500 887.798 475.500 L 888.095 471.500 879.405 471.828 C 869.385 472.205, 869.040 471.961, 869.012 464.500 L 868.994 459.500 863.685 459.500 L 858.376 459.500 858.795 464.539 M 613.692 466.010 C 604.622 467.124, 602.430 468.714, 600.416 475.641 C 597.326 486.271, 600.217 498.942, 606.402 501.877 C 608.023 502.647, 613.981 503.465, 619.902 503.732 C 634.012 504.366, 639.391 502.547, 642.850 495.969 C 644.970 491.938, 645.134 490.716, 644.518 483.500 C 643.649 473.304, 641.920 469.585, 637.167 467.683 C 632.244 465.714, 622.035 464.986, 613.692 466.010 M 670 471.892 L 666.500 472.500 666.500 492.049 L 666.500 511.598 671.876 511.549 L 677.253 511.500 676.574 498.995 C 675.924 487.023, 675.989 486.389, 678.089 484.135 C 684.838 476.890, 700.851 477.457, 704.735 485.077 C 705.508 486.593, 705.979 491.992, 705.992 499.500 L 706.014 511.500 711.257 511.752 L 716.500 512.004 716.292 497.252 C 716.177 489.138, 716.065 481.923, 716.042 481.217 C 715.966 478.884, 709.289 473.174, 705.361 472.083 C 699.692 470.509, 685.025 470.771, 682 472.500 C 678.741 474.363, 677 474.363, 677 472.500 C 677 470.949, 675.952 470.858, 670 471.892 M 729.490 472.029 C 729.306 472.320, 729.027 479.311, 728.869 487.565 C 728.548 504.455, 729.137 506.281, 736 509.654 C 740.990 512.106, 756.406 512.023, 761.970 509.513 C 764.198 508.509, 766.319 507.986, 766.685 508.351 C 767.983 509.649, 765.461 516.337, 763 518.122 C 760.297 520.083, 744.903 522.451, 744.017 521.042 C 743.733 520.590, 741.025 520.058, 738 519.860 L 732.500 519.500 732.177 522.877 C 732 524.735, 732.320 526.720, 732.890 527.290 C 734.222 528.622, 757.900 528.914, 764.456 527.679 C 768.295 526.956, 770.380 525.778, 773.706 522.452 L 778 518.158 778 495.558 L 778 472.957 775.574 471.852 C 774.239 471.244, 772.037 471.025, 770.679 471.366 C 768.259 471.973, 768.204 472.214, 767.825 483.743 C 767.565 491.639, 766.971 496.219, 766.016 497.690 C 763.951 500.869, 757.865 503.264, 751.620 503.354 C 740.525 503.515, 737.640 498.931, 738.162 481.973 L 738.500 471.015 734.162 471.258 C 731.776 471.391, 729.674 471.738, 729.490 472.029 M 796.731 471.918 C 793.558 472.238, 790.994 472.950, 791.034 473.500 C 791.073 474.050, 794.794 477.844, 799.303 481.931 C 803.811 486.018, 807.642 489.935, 807.815 490.637 C 808.188 492.147, 789.713 510, 787.777 510 C 787.350 510, 787 510.337, 787 510.750 C 787 511.163, 790.369 511.471, 794.486 511.434 L 801.973 511.369 808.723 504.684 C 812.436 501.008, 816.155 498.002, 816.987 498.004 C 817.819 498.006, 821.768 501.013, 825.762 504.685 L 833.024 511.363 838.762 511.098 C 841.918 510.952, 844.686 510.647, 844.913 510.420 C 845.341 509.992, 841.851 506.529, 831.217 496.829 C 827.798 493.710, 825 490.890, 825 490.563 C 825 490.021, 826.812 488.275, 839.301 476.784 C 843.794 472.649, 843.597 472.403, 835.250 471.722 C 831.841 471.444, 829.989 471.680, 829.969 472.397 C 829.952 473.004, 827.906 475.031, 825.423 476.902 C 822.939 478.774, 820.462 481.136, 819.918 482.152 C 818.309 485.159, 816.475 484.354, 809.311 477.500 C 805.574 473.925, 802.513 471.076, 802.508 471.168 C 802.504 471.261, 799.904 471.598, 796.731 471.918 M 908.791 471.989 C 904.804 473.190, 900.168 476.774, 898.548 479.907 C 896.894 483.107, 896.712 499.333, 898.295 502.500 C 899.966 505.842, 904.240 509.660, 904.731 508.250 C 905.443 506.207, 907.838 506.823, 909.592 509.500 L 911.230 512 928.615 512 L 946 512 946 508 L 946 504 931.250 503.998 C 914.148 503.997, 909.755 502.731, 909.173 497.640 L 908.846 494.780 928.089 495.140 C 942.855 495.416, 947.430 495.209, 947.750 494.250 C 947.979 493.563, 947.679 493, 947.083 493 C 946.487 493, 946 492.100, 946 491 C 946 489.900, 946.450 489, 947 489 C 947.550 489, 948 487.003, 948 484.562 C 948 479.363, 944.699 475.004, 939 472.675 C 935.101 471.083, 913.432 470.590, 908.791 471.989 M 968.046 473.124 C 966.096 474.017, 963.150 476.183, 961.500 477.937 C 958.657 480.960, 958.483 481.634, 958.171 490.813 C 957.872 499.611, 958.057 500.821, 960.184 504 C 964.438 510.357, 968.018 511.321, 987.721 511.416 L 1005.091 511.500 1004.795 508 L 1004.500 504.500 990.500 503.993 C 971.741 503.314, 969 501.721, 969 491.500 C 969 485.871, 970.540 482.531, 973.826 481.034 C 975.258 480.381, 982.521 479.646, 989.965 479.400 L 1003.500 478.954 1003.794 475.227 L 1004.088 471.500 987.840 471.500 C 974.969 471.500, 970.855 471.838, 968.046 473.124 M 1100.005 472.667 C 1100.002 473.309, 1102.588 476.112, 1105.750 478.897 L 1111.500 483.959 1112.400 480.961 C 1112.974 479.050, 1114.160 477.747, 1115.673 477.367 L 1118.046 476.772 1115.273 474.136 C 1112.884 471.865, 1111.634 471.500, 1106.255 471.500 C 1102.164 471.500, 1100.008 471.903, 1100.005 472.667 M 1197.411 485.179 C 1193.073 493.927, 1189.996 499, 1189.029 498.999 C 1187.694 498.998, 1181.471 488.990, 1174.574 475.750 C 1172.661 472.078, 1172.501 472, 1166.869 472 C 1163.706 472, 1160.867 472.406, 1160.561 472.902 C 1160.254 473.398, 1161.764 476.661, 1163.916 480.152 C 1166.068 483.643, 1170.864 491.563, 1174.575 497.750 C 1178.285 503.938, 1181.623 509, 1181.992 509 C 1182.681 509, 1184.387 505.851, 1185.378 502.750 C 1186.190 500.208, 1193.399 500.362, 1196.211 502.982 C 1198.209 504.843, 1198.409 504.859, 1199.522 503.232 C 1202.637 498.678, 1216.332 472.988, 1215.866 472.574 C 1215.665 472.395, 1212.972 472.048, 1209.883 471.803 L 1204.266 471.357 1197.411 485.179 M 1145.750 472.732 C 1148.776 473.005, 1150 473.566, 1150 474.680 C 1150 475.952, 1150.278 476.014, 1151.489 475.009 C 1153.918 472.993, 1152.218 471.989, 1146.691 472.175 C 1141.670 472.344, 1141.639 472.362, 1145.750 472.732 M 1223.190 475.701 L 1223.500 479.402 1233.532 479.127 C 1244.249 478.834, 1248.994 479.518, 1249.009 481.358 C 1249.014 481.986, 1247.551 483.770, 1245.759 485.321 C 1243.648 487.149, 1242.940 488.323, 1243.750 488.655 C 1245.508 489.375, 1245.312 492, 1243.500 492 C 1242.675 492, 1242 491.550, 1242 491 C 1242 488.935, 1239.897 490.196, 1231.814 497.109 C 1221.493 505.935, 1222.367 504.950, 1221.707 508.500 L 1221.150 511.500 1244.575 511.500 L 1268 511.500 1268 507.931 L 1268 504.363 1254 504.810 C 1243.490 505.145, 1240 504.956, 1240 504.050 C 1240 502.589, 1245.017 497.966, 1257.419 488 C 1266.236 480.916, 1266.774 480.265, 1267.134 476.250 L 1267.514 472 1245.197 472 L 1222.879 472 1223.190 475.701 M 1133.750 477.893 C 1131.303 480.374, 1131.517 480.655, 1135.500 480.190 C 1139.980 479.667, 1140.264 481.952, 1135.956 483.859 C 1132.747 485.279, 1126.570 484.705, 1124.226 482.768 C 1123.525 482.189, 1122.841 481.892, 1122.706 482.107 C 1122.571 482.323, 1121.511 484.538, 1120.350 487.030 C 1118.260 491.516, 1114.616 495.529, 1104.031 505.001 C 1101.023 507.693, 1098.773 510.100, 1099.031 510.351 C 1099.289 510.602, 1101.975 511.098, 1105 511.454 L 1110.500 512.101 1118.161 505.051 C 1122.375 501.173, 1126.334 498, 1126.960 498 C 1127.585 498, 1131.234 501.150, 1135.069 505 L 1142.041 512 1149.771 511.967 L 1157.500 511.933 1155 509.900 C 1147.349 503.677, 1136 492.268, 1136 490.799 C 1136 489.862, 1137.644 487.499, 1139.654 485.547 C 1143.214 482.090, 1143.262 481.947, 1141.499 479.999 C 1140.504 478.900, 1139.085 478, 1138.345 478 C 1137.605 478, 1137 477.550, 1137 477 C 1137 475.531, 1135.737 475.879, 1133.750 477.893 M 919.464 478.989 C 916.694 479.396, 913.500 480.024, 912.366 480.384 C 910.473 480.984, 908 484.760, 908 487.047 C 908 487.607, 913.989 488, 922.531 488 C 938.009 488, 939.425 487.531, 937.096 483.178 C 936.123 481.361, 928.078 477.833, 925.572 478.125 C 924.982 478.193, 922.234 478.582, 919.464 478.989 M 1187.350 511.727 C 1183.861 512.045, 1183.005 512.575, 1181.979 515.050 C 1181.020 517.367, 1179.677 518.315, 1175.675 519.504 C 1172.715 520.383, 1169.187 520.751, 1167.232 520.384 L 1163.873 519.754 1164.186 524.059 L 1164.500 528.364 1170 528.555 C 1181.385 528.949, 1189.036 524.940, 1193.388 516.300 C 1195.456 512.194, 1195.423 510.958, 1193.250 511.175 C 1192.287 511.271, 1189.632 511.519, 1187.350 511.727" stroke="none" fill="#e2e2e3" fill-rule="evenodd"></path><path d="M 486.104 397.914 C 483.929 399.292, 485.494 401.649, 489.057 402.361 C 492.695 403.089, 495 401.738, 495 398.878 C 495 397.372, 494.257 397.003, 491.250 397.015 C 489.188 397.024, 486.872 397.428, 486.104 397.914 M 463 412.738 C 460.525 412.951, 458.183 413.438, 457.794 413.819 C 457.406 414.199, 458.756 416.351, 460.794 418.600 L 464.500 422.689 476.182 422.221 C 487.443 421.770, 487.821 421.684, 486.682 419.805 C 485.389 417.673, 479.895 415, 476.806 415 C 475.734 415, 474.182 414.325, 473.357 413.500 C 472.532 412.675, 470.877 412.079, 469.679 412.175 C 468.480 412.271, 465.475 412.524, 463 412.738 M 530.032 424.766 C 530.003 428.613, 529.669 429.190, 526.629 430.640 L 523.258 432.247 524.787 436.139 C 526.224 439.799, 526.512 439.995, 529.599 439.415 L 532.882 438.800 533.261 443.650 C 533.516 446.915, 533.698 445.804, 533.820 440.250 C 534.011 431.508, 534.623 430.640, 538.230 434 C 539.411 435.100, 540.742 436, 541.189 436 C 542.978 436, 541.804 433.729, 538.196 430.210 C 536.104 428.169, 533.418 425.150, 532.228 423.500 L 530.063 420.500 530.032 424.766 M 414.794 427.855 C 412.797 428.852, 411.374 430.386, 411.180 431.750 C 411.005 432.988, 411.110 434, 411.415 434 C 412.095 434, 422 427.946, 422 427.531 C 422 426.308, 417.485 426.511, 414.794 427.855 M 373 436.595 C 370.525 438.545, 368.156 440.476, 367.735 440.886 C 367.314 441.295, 367.697 443.090, 368.586 444.872 C 369.476 446.655, 369.975 448.988, 369.695 450.057 C 369.252 451.753, 369.715 451.997, 373.344 451.978 C 375.962 451.964, 378.425 451.219, 380 449.965 C 382.297 448.137, 382.358 447.891, 380.750 446.938 C 378.823 445.796, 378.399 442.490, 380.049 441.470 C 380.771 441.023, 380.750 440.403, 379.979 439.475 C 379.364 438.734, 378.555 436.985, 378.181 435.589 L 377.500 433.050 373 436.595 M 395.115 439.175 C 388.345 443.899, 387.881 444.440, 389.556 445.664 C 390.560 446.399, 391.859 447.002, 392.441 447.004 C 393.024 447.006, 397.226 444.453, 401.780 441.331 C 407.497 437.412, 409.664 435.404, 408.780 434.843 C 405.954 433.049, 402.178 434.247, 395.115 439.175 M 1015.434 482.500 C 1015.433 496.250, 1015.574 502.014, 1015.747 495.308 C 1015.919 488.603, 1015.920 477.353, 1015.748 470.308 C 1015.576 463.264, 1015.434 468.750, 1015.434 482.500 M 666.417 491.500 C 666.418 501.950, 666.566 506.089, 666.746 500.698 C 666.926 495.307, 666.925 486.757, 666.744 481.698 C 666.563 476.639, 666.416 481.050, 666.417 491.500 M 738.378 484 C 738.378 490.325, 738.541 492.913, 738.739 489.750 C 738.937 486.587, 738.937 481.413, 738.739 478.250 C 738.541 475.087, 738.378 477.675, 738.378 484 M 654.349 484 C 654.349 488.675, 654.522 490.587, 654.732 488.250 C 654.943 485.913, 654.943 482.087, 654.732 479.750 C 654.522 477.413, 654.349 479.325, 654.349 484 M 486.330 486.281 C 485.252 487.501, 483.618 489.712, 482.699 491.193 C 481.249 493.531, 481.218 494.075, 482.462 495.319 C 483.706 496.563, 484.423 496.273, 487.898 493.126 C 490.099 491.132, 491.473 489.350, 490.950 489.167 C 490.428 488.983, 490 487.997, 490 486.976 C 490 484.117, 488.494 483.831, 486.330 486.281 M 1064.349 502 C 1064.349 506.675, 1064.522 508.587, 1064.732 506.250 C 1064.943 503.913, 1064.943 500.087, 1064.732 497.750 C 1064.522 495.413, 1064.349 497.325, 1064.349 502 M 503.951 507.559 C 503.293 508.352, 502.312 509, 501.771 509 C 501.230 509, 499.884 510.149, 498.779 511.554 C 497.674 512.958, 490.422 518.619, 482.664 524.134 C 467.282 535.067, 467.220 535.086, 459.108 531.166 L 455.205 529.281 447.025 534.602 C 430.802 545.155, 413.130 552.766, 393.478 557.666 C 384.321 559.948, 380.261 560.410, 369 560.451 C 361.575 560.478, 353.363 560.111, 350.750 559.636 L 346 558.773 346 563.361 C 346 568.623, 346.524 569.031, 358.500 573.114 C 364.886 575.291, 367.123 575.500, 384 575.499 C 401.709 575.498, 403.013 575.360, 414.500 572.265 C 441.018 565.121, 471.647 546.179, 494.856 522.572 C 502.085 515.218, 508 508.755, 508 508.208 C 508 506.498, 505.203 506.050, 503.951 507.559 M 457.647 512.838 C 456.091 514.556, 456.108 514.788, 457.907 516.416 C 459.717 518.054, 459.983 518.057, 462.409 516.468 L 464.988 514.778 462.586 512.889 C 459.646 510.576, 459.693 510.577, 457.647 512.838 M 319.667 528.667 C 318.601 529.732, 318.896 532.818, 320.137 533.585 C 321.375 534.350, 325.152 530.054, 324.363 528.778 C 323.775 527.826, 320.583 527.751, 319.667 528.667 M 335.473 537.085 C 333.347 543.782, 352.318 551.960, 370 551.969 C 379.897 551.974, 382.251 551.338, 380.998 548.996 C 380.252 547.602, 378.233 547.064, 371.772 546.537 C 358.712 545.471, 340.866 539.828, 338.512 536.019 C 337.498 534.379, 336.186 534.840, 335.473 537.085" stroke="none" fill="#535253" fill-rule="evenodd"></path><path d="M 498.250 392.662 C 497.563 392.940, 497 393.804, 497 394.583 C 497 395.363, 496.550 396, 496 396 C 495.450 396, 495 396.450, 495 397 C 495 397.550, 496.055 398, 497.343 398 C 500.728 398, 510.077 401.391, 514.606 404.261 C 519.056 407.081, 524.961 413.456, 533.263 424.402 C 536.432 428.581, 539.526 432, 540.138 432 C 541.823 432, 540.427 426.404, 536.985 419.361 C 531.437 408.012, 514.158 393.100, 508.324 394.626 C 507.214 394.916, 505.794 394.456, 505.058 393.570 C 503.790 392.042, 500.781 391.641, 498.250 392.662 M 481.750 396.689 C 479.569 397.259, 479.463 399.580, 481.582 400.393 C 484.084 401.353, 485 401.114, 485 399.500 C 485 398.675, 485.450 398, 486 398 C 486.550 398, 487 397.550, 487 397 C 487 395.984, 484.919 395.861, 481.750 396.689 M 474 413.439 C 474 414.416, 474.889 415, 476.378 415 C 479.841 415, 485.317 417.553, 486.681 419.804 C 487.346 420.900, 489.531 422.056, 491.681 422.449 C 493.781 422.833, 496.988 424.014, 498.807 425.073 C 503.207 427.636, 504 427.510, 503.999 424.250 C 503.998 422.010, 503.118 421.008, 499.249 418.843 C 494.080 415.950, 486.213 413.523, 478.750 412.517 C 474.838 411.990, 474 412.153, 474 413.439 M 434.479 417.850 C 433.368 418.207, 429.318 420.284, 425.479 422.465 C 416.538 427.545, 419.188 428.417, 429.208 423.692 C 433.219 421.801, 437.572 419.923, 438.882 419.518 C 440.722 418.949, 440.949 418.582, 439.882 417.906 C 438.329 416.922, 437.392 416.912, 434.479 417.850 M 384.250 428.256 C 377.779 432.585, 377.105 433.942, 379.173 438.480 C 380.070 440.449, 380.070 441.330, 379.173 442.227 C 377.459 443.941, 377.709 444.763, 380.500 446.592 C 382.822 448.114, 383.184 448.109, 385.596 446.529 L 388.192 444.828 386.096 442.875 C 383.134 440.115, 383.477 438.487, 387.551 435.968 C 389.504 434.761, 391.721 432.812, 392.478 431.637 C 394.007 429.262, 393.420 423.979, 391.633 424.037 C 391.010 424.058, 387.688 425.956, 384.250 428.256 M 406.250 431.745 C 404.462 432.635, 403 433.659, 403 434.020 C 403 434.903, 409.187 434.637, 410.706 433.689 C 411.885 432.953, 411.417 429.937, 410.143 430.064 C 409.789 430.099, 408.038 430.856, 406.250 431.745 M 527.955 439.650 C 525.541 440.303, 526.735 446.272, 530.058 450.156 L 532.919 453.500 532.959 446.250 C 533.002 438.628, 532.786 438.343, 527.955 439.650 M 1020.706 456.730 L 1024.911 457.111 1025.260 463.805 L 1025.608 470.500 1025.804 463.250 L 1026 456 1021.250 456.175 L 1016.500 456.349 1020.706 456.730 M 499.500 466.220 C 498.400 468.528, 495.609 473.361, 493.297 476.958 C 490.157 481.847, 489.244 484.132, 489.688 486 C 490.014 487.375, 490.405 488.649, 490.555 488.831 C 491.550 490.035, 495.609 485.791, 501.022 477.888 C 506.651 469.671, 507.139 468.575, 505.657 467.491 C 504.746 466.825, 504 465.317, 504 464.140 C 504 460.635, 501.642 461.725, 499.500 466.220 M 728.180 484.250 C 728.362 497.574, 728.735 495.975, 729.232 479.748 C 729.379 474.934, 729.163 470.996, 728.750 470.998 C 728.337 470.999, 728.081 476.962, 728.180 484.250 M 767.211 482.250 L 767.422 493.500 767.748 483.036 C 767.960 476.248, 768.501 472.301, 769.287 471.801 C 770.122 471.271, 769.954 471.026, 768.750 471.015 C 767.174 471.002, 767.021 472.117, 767.211 482.250 M 874.280 471.736 C 876.909 471.943, 880.959 471.940, 883.280 471.731 C 885.601 471.521, 883.450 471.352, 878.500 471.355 C 873.550 471.358, 871.651 471.530, 874.280 471.736 M 982.250 471.742 C 985.962 471.934, 992.038 471.934, 995.750 471.742 C 999.462 471.549, 996.425 471.392, 989 471.392 C 981.575 471.392, 978.538 471.549, 982.250 471.742 M 1142.083 471.365 C 1143.070 472.228, 1155 472.727, 1155 471.905 C 1155 471.407, 1152 471, 1148.333 471 C 1144.667 471, 1141.854 471.164, 1142.083 471.365 M 1158.550 471.827 C 1159.072 472.282, 1162.425 472.351, 1166 471.980 L 1172.500 471.305 1165.050 471.152 C 1160.952 471.069, 1158.027 471.372, 1158.550 471.827 M 1234.306 471.747 C 1240.800 471.922, 1251.150 471.921, 1257.306 471.746 C 1263.463 471.571, 1258.150 471.428, 1245.500 471.429 C 1232.850 471.429, 1227.813 471.573, 1234.306 471.747 M 858.360 491 C 858.360 496.225, 858.529 498.363, 858.735 495.750 C 858.941 493.137, 858.941 488.863, 858.735 486.250 C 858.529 483.637, 858.360 485.775, 858.360 491 M 1025.392 499 C 1025.392 506.425, 1025.549 509.462, 1025.742 505.750 C 1025.934 502.038, 1025.934 495.962, 1025.742 492.250 C 1025.549 488.538, 1025.392 491.575, 1025.392 499 M 1054.389 499.500 C 1054.390 506.650, 1054.550 509.444, 1054.742 505.708 C 1054.935 501.973, 1054.934 496.123, 1054.739 492.708 C 1054.545 489.294, 1054.387 492.350, 1054.389 499.500 M 507.520 501.980 C 500.838 508.713, 499.991 510.087, 503.764 508.073 C 504.719 507.563, 506.288 506.902, 507.250 506.604 C 508.212 506.306, 508.996 505.261, 508.991 504.281 C 508.986 503.302, 510.398 501.336, 512.129 499.913 C 513.859 498.491, 515.098 496.794, 514.881 496.143 C 514.664 495.492, 511.352 498.119, 507.520 501.980 M 1244.750 504.740 C 1248.188 504.936, 1253.813 504.936, 1257.250 504.740 C 1260.688 504.545, 1257.875 504.385, 1251 504.385 C 1244.125 504.385, 1241.313 504.545, 1244.750 504.740 M 480.214 509.750 C 477.567 512.362, 471.057 517.650, 465.746 521.500 C 460.435 525.350, 456.070 528.831, 456.045 529.237 C 455.993 530.091, 462.334 532.892, 466.028 533.646 C 468.049 534.058, 471.364 532.163, 482.528 524.212 C 490.213 518.740, 497.357 513.304, 498.405 512.132 L 500.310 510 496.849 510 C 494.728 510, 492.077 509.032, 490 507.500 C 488.136 506.125, 486.255 505, 485.819 505 C 485.383 505, 482.861 507.137, 480.214 509.750 M 330.723 530.280 C 330.015 532.126, 333.695 538.307, 335.015 537.490 C 336.559 536.537, 336.124 534.740, 333.605 531.661 C 331.834 529.496, 331.149 529.168, 330.723 530.280 M 322.229 532.667 C 319.464 535.772, 319.474 536.892, 322.345 545.023 C 325.484 553.913, 331.386 563, 334.021 563 C 335.146 563, 338.278 564.121, 340.980 565.490 C 346.607 568.341, 347.477 567.780, 346.489 561.936 C 345.935 558.656, 345.165 557.610, 342.158 556.056 C 334.467 552.080, 326 540.575, 326 534.099 C 326 530.085, 324.901 529.668, 322.229 532.667 M 432.308 580.466 C 429.302 581.774, 421.549 584.002, 412.500 586.161 C 406.250 587.651, 405.889 589, 411.741 589 C 414.569 589, 417.160 588.550, 417.500 588 C 418.349 586.626, 422.341 586.741, 423.780 588.180 C 424.656 589.056, 425.543 589.076, 427.230 588.256 C 428.478 587.648, 436.700 586.871, 445.500 586.528 C 461.858 585.891, 466 585.380, 466 584 C 466 582.741, 462.263 582.145, 449.717 581.401 C 443.237 581.017, 437.697 580.319, 437.408 579.851 C 436.719 578.737, 436.118 578.809, 432.308 580.466" stroke="none" fill="#727374" fill-rule="evenodd"></path><path d="M 494 399.418 C 494 400.198, 493.747 401.495, 493.439 402.299 C 493.051 403.310, 494.364 404.482, 497.689 406.091 C 503.625 408.965, 510.559 415.238, 513.012 419.955 C 514.026 421.905, 516.903 425.460, 519.406 427.855 L 523.956 432.210 527.228 430.285 C 530.177 428.550, 530.465 427.973, 530.144 424.435 C 529.609 418.540, 522.546 409.383, 514.606 404.291 C 506.743 399.247, 494 396.234, 494 399.418 M 454.250 414.662 C 452.303 415.448, 452.768 417.433, 455.500 420 C 456.875 421.292, 458 422.993, 458 423.781 C 458 424.677, 458.593 424.986, 459.582 424.607 C 460.452 424.273, 461.802 424, 462.582 424 C 464.846 424, 464.258 422.451, 460.336 418.082 C 456.583 413.901, 456.397 413.796, 454.250 414.662 M 533.674 435.934 C 534.040 440.669, 533.804 446.320, 533.089 449.951 C 532.121 454.875, 532.143 456.286, 533.205 457.348 C 535.044 459.187, 541.726 460.164, 542.283 458.674 C 542.525 458.029, 542.610 452.821, 542.471 447.101 C 542.269 438.719, 541.905 436.526, 540.595 435.793 C 538.131 434.414, 535 430.787, 535 429.311 C 535 428.590, 534.564 428, 534.031 428 C 533.436 428, 533.299 431.061, 533.674 435.934 M 364.815 443.924 C 364.102 445.066, 363.194 446, 362.797 446 C 361.445 446, 347.100 461.042, 340.861 469 C 336.071 475.111, 328.417 488.173, 327.584 491.658 C 327.210 493.221, 325.592 497.200, 323.988 500.500 C 318.821 511.133, 317.699 528, 322.159 528 C 324.454 528, 324.493 527.883, 326.106 516.250 C 326.811 511.163, 327.863 506.999, 328.444 506.998 C 329.464 506.996, 331.729 502.078, 336.492 489.528 C 338.912 483.149, 341.439 480.510, 342.894 482.842 C 343.514 483.835, 344.868 482.815, 348.116 478.909 C 356.674 468.613, 363.971 461.448, 369.918 457.500 C 376.473 453.150, 377.255 452, 373.660 452 C 371.815 452, 371.040 451.150, 369.995 447.986 C 368.210 442.575, 366.497 441.232, 364.815 443.924 M 384.182 447.215 C 380.677 449.379, 380.895 450.496, 385 451.423 C 386.696 451.805, 388.297 451.315, 389.979 449.897 C 392.391 447.865, 392.406 447.770, 390.538 446.404 C 388.199 444.694, 388.281 444.683, 384.182 447.215 M 1138.475 473.780 C 1137.361 474.726, 1136.607 476.288, 1136.798 477.250 C 1136.990 478.212, 1136.576 479, 1135.878 479 C 1134.452 479, 1129 483.920, 1129 485.206 C 1129 486.360, 1133.827 485.046, 1137.846 482.798 C 1139.686 481.769, 1142.012 481.186, 1143.014 481.504 C 1144.299 481.912, 1145.595 481.086, 1147.418 478.697 C 1150.858 474.186, 1150.684 473, 1146.582 473 C 1144.702 473, 1142.564 472.788, 1141.832 472.530 C 1141.099 472.271, 1139.589 472.833, 1138.475 473.780 M 1114.162 477.879 C 1113.427 478.345, 1112.752 480.178, 1112.662 481.953 C 1112.535 484.484, 1113.174 485.706, 1115.630 487.625 L 1118.760 490.071 1120.756 486.689 C 1122.866 483.113, 1122.417 480.873, 1119.073 478.282 C 1117.203 476.834, 1115.970 476.733, 1114.162 477.879 M 478.033 495.938 C 477.463 497.003, 473.397 500.659, 468.998 504.063 C 464.599 507.466, 461 510.554, 461 510.925 C 461 512.038, 463.312 514, 464.623 514 C 466.715 514, 472 508.922, 472 506.911 C 472 505.631, 472.699 505, 474.117 505 C 475.281 505, 477.997 503.183, 480.152 500.963 C 483.590 497.420, 483.890 496.747, 482.606 495.463 C 480.626 493.483, 479.272 493.623, 478.033 495.938 M 1191.598 500.606 C 1191.157 501.754, 1190.265 502.032, 1188.469 501.582 C 1186.588 501.109, 1185.813 501.397, 1185.387 502.725 C 1185.075 503.701, 1184.364 505.456, 1183.807 506.625 C 1182.175 510.053, 1184.382 513.201, 1187.790 512.308 C 1189.281 511.917, 1191.625 511.575, 1193 511.549 C 1196.966 511.471, 1199.911 504.670, 1196.538 503.376 C 1195.734 503.068, 1194.804 501.957, 1194.471 500.908 C 1193.732 498.579, 1192.428 498.442, 1191.598 500.606 M 983.789 511.741 C 987.248 511.937, 992.648 511.936, 995.789 511.738 C 998.930 511.540, 996.100 511.380, 989.500 511.382 C 982.900 511.384, 980.330 511.546, 983.789 511.741 M 1234.304 511.747 C 1240.247 511.924, 1249.697 511.923, 1255.304 511.745 C 1260.912 511.567, 1256.050 511.422, 1244.500 511.423 C 1232.950 511.424, 1228.362 511.570, 1234.304 511.747 M 449 518.671 C 445.425 521.097, 441.016 524.021, 439.201 525.169 C 435.742 527.357, 435.236 530.229, 438.210 530.802 C 439.138 530.981, 442.404 529.523, 445.468 527.563 C 448.532 525.604, 451.259 524, 451.528 524 C 451.797 524, 453.796 522.712, 455.969 521.137 L 459.921 518.275 457.711 516.267 L 455.500 514.258 449 518.671 M 380.592 548.500 C 382.498 551.410, 385.708 551.753, 387.608 549.250 C 389.752 546.425, 389.277 546, 383.977 546 L 378.954 546 380.592 548.500 M 333.461 563.063 C 332.712 564.275, 335.725 568, 337.455 568 C 338.085 568, 339.129 567.471, 339.776 566.824 C 340.677 565.923, 340.250 565.222, 337.952 563.824 C 334.442 561.690, 334.322 561.670, 333.461 563.063" stroke="none" fill="#3f3d3e" fill-rule="evenodd"></path><path d="M 481.750 390.732 C 484.087 390.943, 487.913 390.943, 490.250 390.732 C 492.587 390.522, 490.675 390.349, 486 390.349 C 481.325 390.349, 479.413 390.522, 481.750 390.732 M 463.263 401.107 C 456.790 402.186, 435.981 409.082, 427.243 413.044 C 421.666 415.573, 419.991 415.899, 415.375 415.356 C 412.419 415.009, 410 414.344, 410 413.878 C 410 413.413, 408.405 413.793, 406.455 414.723 C 402.996 416.372, 402.236 417.547, 397.392 428.725 C 396.081 431.750, 396.136 432.043, 398.279 433.447 C 400.398 434.835, 401.074 434.685, 407.532 431.395 C 411.365 429.443, 415.850 426.581, 417.500 425.035 C 421.314 421.461, 425.507 419.355, 430.535 418.487 C 432.716 418.111, 437.200 417.127, 440.500 416.301 C 443.800 415.475, 448.525 414.648, 451 414.464 C 453.475 414.280, 458.679 413.673, 462.563 413.115 C 471.123 411.887, 481.633 412.463, 488.837 414.556 C 495.026 416.354, 505.308 421.542, 507.326 423.886 C 509.845 426.810, 514.950 444.432, 514.492 448.619 C 514.109 452.121, 514.201 452.012, 515.438 447.500 C 516.191 444.750, 516.851 439.170, 516.904 435.100 C 516.984 428.922, 516.553 426.818, 514.294 422.356 C 505.997 405.970, 485.441 397.410, 463.263 401.107 M 407.500 418.557 C 404.265 420.186, 400.426 427.061, 401.373 429.529 C 402.256 431.830, 404.760 431.291, 411.119 427.428 C 416.455 424.186, 417 423.538, 417 420.428 C 417 417.223, 416.789 417.001, 413.750 417.023 C 411.962 417.035, 409.150 417.726, 407.500 418.557 M 526.137 444.073 C 525.881 450.747, 514.322 471.733, 504.801 482.810 C 503.236 484.630, 502.185 486.490, 502.465 486.943 C 502.745 487.396, 505.449 488.076, 508.475 488.454 C 516.666 489.477, 520.877 486.817, 524.844 478.114 C 526.502 474.476, 528.617 468.846, 529.544 465.601 C 531.136 460.027, 531.132 459.504, 529.472 456.101 C 528.505 454.121, 527.391 449.800, 526.994 446.500 C 526.498 442.370, 526.231 441.613, 526.137 444.073 M 777.766 486.749 C 778.203 512.671, 778.610 514.813, 778.811 492.250 C 778.915 480.563, 778.663 470.999, 778.250 470.999 C 777.837 470.998, 777.620 478.085, 777.766 486.749 M 989.280 479.736 C 991.909 479.943, 995.959 479.940, 998.280 479.731 C 1000.601 479.521, 998.450 479.352, 993.500 479.355 C 988.550 479.358, 986.651 479.530, 989.280 479.736 M 1230.750 479.737 C 1233.638 479.939, 1238.362 479.939, 1241.250 479.737 C 1244.138 479.535, 1241.775 479.370, 1236 479.370 C 1230.225 479.370, 1227.862 479.535, 1230.750 479.737 M 869.355 489.500 C 869.352 494.450, 869.521 496.601, 869.731 494.280 C 869.940 491.959, 869.943 487.909, 869.736 485.280 C 869.530 482.651, 869.358 484.550, 869.355 489.500 M 915.750 487.743 C 919.737 487.932, 926.263 487.932, 930.250 487.743 C 934.237 487.553, 930.975 487.397, 923 487.397 C 915.025 487.397, 911.763 487.553, 915.750 487.743 M 918.250 495.743 C 922.513 495.931, 929.487 495.931, 933.750 495.743 C 938.013 495.556, 934.525 495.402, 926 495.402 C 917.475 495.402, 913.987 495.556, 918.250 495.743 M 618.250 503.735 C 620.862 503.941, 625.138 503.941, 627.750 503.735 C 630.362 503.529, 628.225 503.360, 623 503.360 C 617.775 503.360, 615.638 503.529, 618.250 503.735 M 924.296 503.744 C 928.583 503.932, 935.333 503.931, 939.296 503.742 C 943.258 503.552, 939.750 503.399, 931.500 503.400 C 923.250 503.401, 920.008 503.556, 924.296 503.744 M 983.292 503.742 C 987.027 503.935, 992.877 503.934, 996.292 503.739 C 999.706 503.545, 996.650 503.387, 989.500 503.389 C 982.350 503.390, 979.556 503.550, 983.292 503.742 M 326 533.533 C 326 540.926, 334.369 552.057, 343.500 556.806 C 349.368 559.858, 356.749 561.025, 368.799 560.804 C 376.734 560.659, 377.756 560.518, 372.750 560.258 L 366 559.909 366 556.092 L 366 552.274 358.521 551.068 C 348.002 549.371, 339.847 545.066, 334.979 538.640 C 327.383 528.614, 326 527.827, 326 533.533 M 443.738 575.614 C 439.715 576.841, 443.690 578, 451.920 578 C 461.803 578, 486.521 580.484, 492.250 582.053 C 497.696 583.545, 497.029 585.668, 490.750 586.828 C 479.983 588.817, 452.198 589.825, 428 589.104 C 414.525 588.702, 403.157 588.654, 402.739 588.998 C 401.539 589.982, 441.632 592.035, 461.500 592.006 C 499.785 591.951, 538 587.465, 538 583.026 C 538 581.344, 533.449 579.963, 521 577.868 C 511.835 576.325, 503.004 575.846, 477.500 575.504 C 459.900 575.269, 444.707 575.318, 443.738 575.614" stroke="none" fill="#c9cacb" fill-rule="evenodd"></path><path d="M 470.500 391.624 C 458.792 393.921, 452.338 395.466, 451.550 396.162 C 451.028 396.623, 449.782 397, 448.781 397 C 446.402 397, 434.339 401.230, 429.387 403.800 C 425.635 405.748, 423.941 406.482, 417.500 408.946 C 414.164 410.223, 409.462 413.795, 410.177 414.510 C 410.430 414.763, 413.306 415.057, 416.568 415.164 C 421.561 415.327, 424.082 414.686, 432.500 411.115 C 447.016 404.957, 461.051 401.046, 471.219 400.324 C 477.178 399.901, 480 399.304, 480 398.467 C 480 396.771, 483.758 395.938, 488.203 396.648 C 492.909 397.401, 497 396.393, 497 394.481 C 497 393.666, 497.450 393, 498 393 C 498.550 393, 499 392.550, 499 392 C 499 391.044, 475.069 390.728, 470.500 391.624 M 445 415.195 C 440.136 416.256, 437.280 418.029, 440.550 417.958 C 444.199 417.878, 453.107 415.441, 452.386 414.719 C 451.534 413.868, 450.902 413.908, 445 415.195 M 396.546 420.491 C 392.787 422.800, 392.606 423.141, 392.870 427.429 C 393.136 431.760, 392.967 432.064, 388.574 435.161 C 386.058 436.934, 384 438.941, 384 439.621 C 384 440.814, 386.638 444, 387.626 444 C 388.720 444, 400 435.859, 400 435.070 C 400 434.599, 399.325 433.955, 398.500 433.638 C 396.217 432.762, 396.727 429.061, 399.931 423.250 C 403.143 417.424, 402.454 416.862, 396.546 420.491 M 427.994 418.934 C 424.192 420.091, 419.508 422.682, 418.055 424.434 C 415.879 427.056, 418.585 426.330, 425.588 422.414 C 433.341 418.078, 434.016 417.102, 427.994 418.934 M 503.825 424.097 C 503.629 426.150, 504.265 428.844, 505.429 430.886 C 508.253 435.842, 508 444.690, 504.769 454 C 503.338 458.125, 502.579 461.650, 503.083 461.833 C 503.587 462.017, 504 463.206, 504 464.476 C 504 466.322, 505.633 468, 507.430 468 C 507.662 468, 508.948 465.084, 512.060 457.500 C 512.512 456.400, 513.355 453.128, 513.935 450.229 C 514.890 445.446, 514.698 444.054, 511.867 435.229 C 510.150 429.878, 507.712 424.419, 506.448 423.097 L 504.149 420.695 503.825 424.097 M 527.005 448.282 C 526.998 450.935, 529.741 457, 530.949 457 C 532.851 457, 531.975 452.557, 529.469 449.500 C 527.563 447.175, 527.009 446.901, 527.005 448.282 M 517.106 487.259 C 514.019 489.163, 513.212 489.248, 508.187 488.194 C 501.744 486.842, 502.610 486.339, 492.993 497.008 L 486.021 504.742 489.814 507.371 C 496.610 512.080, 498.335 511.383, 510.342 499.070 C 516.204 493.059, 521 487.434, 521 486.570 C 521 485.707, 520.888 485.037, 520.750 485.083 C 520.612 485.128, 518.973 486.108, 517.106 487.259 M 716.374 496.500 C 716.376 502.550, 716.541 504.896, 716.740 501.713 C 716.939 498.531, 716.937 493.581, 716.736 490.713 C 716.535 487.846, 716.372 490.450, 716.374 496.500 M 705.389 499.500 C 705.390 506.650, 705.550 509.444, 705.742 505.708 C 705.935 501.973, 705.934 496.123, 705.739 492.708 C 705.545 489.294, 705.387 492.350, 705.389 499.500 M 325.547 522.250 C 324.032 529.195, 324.538 531, 328 531 C 331.511 531, 331.452 531.258, 329.385 524.938 C 327.640 519.604, 326.325 518.683, 325.547 522.250 M 438.183 578.617 C 435.770 580.395, 437.328 580.743, 451.250 581.532 C 461.519 582.113, 463 582.418, 463 583.947 C 463 585.462, 461.576 585.783, 452.344 586.348 C 446.484 586.707, 438.635 587, 434.903 587 C 423.091 587, 426.543 588.667, 439.785 589.358 C 452.628 590.028, 481.075 588.616, 490.750 586.828 C 496.806 585.709, 497.676 583.675, 492.750 582.148 C 488.747 580.906, 461.817 578.165, 449.183 577.712 C 442.865 577.485, 439.324 577.777, 438.183 578.617" stroke="none" fill="#a9adaf" fill-rule="evenodd"></path></svg><style>@media (prefers-color-scheme: light) { :root { filter: none; } }
@media (prefers-color-scheme: dark) { :root { filter: none; } }
</style></svg>